<mxfile host="app.diagrams.net" modified="2023-10-04T06:59:59.626Z" agent="Mozilla/5.0 (Windows NT 10.0; Win64; x64) AppleWebKit/537.36 (KHTML, like Gecko) Chrome/116.0.0.0 Safari/537.36 OPR/102.0.0.0" etag="7_vYpGXHDEPhul11Ml5v" version="21.8.2" type="device">
  <diagram name="Страница — 1" id="T5EOWG8-J4vIcf0BHowr">
    <mxGraphModel dx="2133" dy="1993" grid="0" gridSize="10" guides="1" tooltips="1" connect="1" arrows="1" fold="1" page="0" pageScale="1" pageWidth="827" pageHeight="1169" math="0" shadow="0">
      <root>
        <mxCell id="0" />
        <mxCell id="1" parent="0" />
        <mxCell id="BT73VBc6w89gyIfs_S2I-2" value="Users" style="swimlane;fontStyle=0;childLayout=stackLayout;horizontal=1;startSize=26;fillColor=none;horizontalStack=0;resizeParent=1;resizeParentMax=0;resizeLast=0;collapsible=1;marginBottom=0;whiteSpace=wrap;html=1;" parent="1" vertex="1">
          <mxGeometry x="1227" y="776" width="140" height="208" as="geometry" />
        </mxCell>
        <mxCell id="BT73VBc6w89gyIfs_S2I-3" value="UserID [pk]&amp;nbsp;" style="text;strokeColor=none;fillColor=none;align=left;verticalAlign=top;spacingLeft=4;spacingRight=4;overflow=hidden;rotatable=0;points=[[0,0.5],[1,0.5]];portConstraint=eastwest;whiteSpace=wrap;html=1;" parent="BT73VBc6w89gyIfs_S2I-2" vertex="1">
          <mxGeometry y="26" width="140" height="26" as="geometry" />
        </mxCell>
        <mxCell id="BT73VBc6w89gyIfs_S2I-4" value="FirstName" style="text;strokeColor=none;fillColor=none;align=left;verticalAlign=top;spacingLeft=4;spacingRight=4;overflow=hidden;rotatable=0;points=[[0,0.5],[1,0.5]];portConstraint=eastwest;whiteSpace=wrap;html=1;" parent="BT73VBc6w89gyIfs_S2I-2" vertex="1">
          <mxGeometry y="52" width="140" height="26" as="geometry" />
        </mxCell>
        <mxCell id="BT73VBc6w89gyIfs_S2I-5" value="LastName" style="text;strokeColor=none;fillColor=none;align=left;verticalAlign=top;spacingLeft=4;spacingRight=4;overflow=hidden;rotatable=0;points=[[0,0.5],[1,0.5]];portConstraint=eastwest;whiteSpace=wrap;html=1;" parent="BT73VBc6w89gyIfs_S2I-2" vertex="1">
          <mxGeometry y="78" width="140" height="26" as="geometry" />
        </mxCell>
        <mxCell id="BT73VBc6w89gyIfs_S2I-6" value="UserName" style="text;strokeColor=none;fillColor=none;align=left;verticalAlign=top;spacingLeft=4;spacingRight=4;overflow=hidden;rotatable=0;points=[[0,0.5],[1,0.5]];portConstraint=eastwest;whiteSpace=wrap;html=1;" parent="BT73VBc6w89gyIfs_S2I-2" vertex="1">
          <mxGeometry y="104" width="140" height="26" as="geometry" />
        </mxCell>
        <mxCell id="BT73VBc6w89gyIfs_S2I-7" value="Email" style="text;strokeColor=none;fillColor=none;align=left;verticalAlign=top;spacingLeft=4;spacingRight=4;overflow=hidden;rotatable=0;points=[[0,0.5],[1,0.5]];portConstraint=eastwest;whiteSpace=wrap;html=1;" parent="BT73VBc6w89gyIfs_S2I-2" vertex="1">
          <mxGeometry y="130" width="140" height="26" as="geometry" />
        </mxCell>
        <mxCell id="BT73VBc6w89gyIfs_S2I-8" value="Role" style="text;strokeColor=none;fillColor=none;align=left;verticalAlign=top;spacingLeft=4;spacingRight=4;overflow=hidden;rotatable=0;points=[[0,0.5],[1,0.5]];portConstraint=eastwest;whiteSpace=wrap;html=1;" parent="BT73VBc6w89gyIfs_S2I-2" vertex="1">
          <mxGeometry y="156" width="140" height="26" as="geometry" />
        </mxCell>
        <mxCell id="BT73VBc6w89gyIfs_S2I-9" value="UserFullName" style="text;strokeColor=none;fillColor=none;align=left;verticalAlign=top;spacingLeft=4;spacingRight=4;overflow=hidden;rotatable=0;points=[[0,0.5],[1,0.5]];portConstraint=eastwest;whiteSpace=wrap;html=1;" parent="BT73VBc6w89gyIfs_S2I-2" vertex="1">
          <mxGeometry y="182" width="140" height="26" as="geometry" />
        </mxCell>
        <mxCell id="BT73VBc6w89gyIfs_S2I-32" value="Requests" style="swimlane;fontStyle=0;childLayout=stackLayout;horizontal=1;startSize=26;fillColor=none;horizontalStack=0;resizeParent=1;resizeParentMax=0;resizeLast=0;collapsible=1;marginBottom=0;whiteSpace=wrap;html=1;" parent="1" vertex="1">
          <mxGeometry x="1547" y="806" width="160" height="260" as="geometry" />
        </mxCell>
        <mxCell id="BT73VBc6w89gyIfs_S2I-33" value="RequestID: int [pk]" style="text;strokeColor=none;fillColor=none;align=left;verticalAlign=top;spacingLeft=4;spacingRight=4;overflow=hidden;rotatable=0;points=[[0,0.5],[1,0.5]];portConstraint=eastwest;whiteSpace=wrap;html=1;" parent="BT73VBc6w89gyIfs_S2I-32" vertex="1">
          <mxGeometry y="26" width="160" height="26" as="geometry" />
        </mxCell>
        <mxCell id="BT73VBc6w89gyIfs_S2I-34" value="&lt;div&gt;Title: string&lt;/div&gt;&lt;div&gt;&lt;br&gt;&lt;/div&gt;" style="text;strokeColor=none;fillColor=none;align=left;verticalAlign=top;spacingLeft=4;spacingRight=4;overflow=hidden;rotatable=0;points=[[0,0.5],[1,0.5]];portConstraint=eastwest;whiteSpace=wrap;html=1;" parent="BT73VBc6w89gyIfs_S2I-32" vertex="1">
          <mxGeometry y="52" width="160" height="26" as="geometry" />
        </mxCell>
        <mxCell id="BT73VBc6w89gyIfs_S2I-35" value="Description: string" style="text;strokeColor=none;fillColor=none;align=left;verticalAlign=top;spacingLeft=4;spacingRight=4;overflow=hidden;rotatable=0;points=[[0,0.5],[1,0.5]];portConstraint=eastwest;whiteSpace=wrap;html=1;" parent="BT73VBc6w89gyIfs_S2I-32" vertex="1">
          <mxGeometry y="78" width="160" height="26" as="geometry" />
        </mxCell>
        <mxCell id="BT73VBc6w89gyIfs_S2I-36" value="Status: string" style="text;strokeColor=none;fillColor=none;align=left;verticalAlign=top;spacingLeft=4;spacingRight=4;overflow=hidden;rotatable=0;points=[[0,0.5],[1,0.5]];portConstraint=eastwest;whiteSpace=wrap;html=1;" parent="BT73VBc6w89gyIfs_S2I-32" vertex="1">
          <mxGeometry y="104" width="160" height="26" as="geometry" />
        </mxCell>
        <mxCell id="BT73VBc6w89gyIfs_S2I-37" value="&lt;div&gt;Priority: string&lt;/div&gt;&lt;div&gt;&lt;br&gt;&lt;/div&gt;" style="text;strokeColor=none;fillColor=none;align=left;verticalAlign=top;spacingLeft=4;spacingRight=4;overflow=hidden;rotatable=0;points=[[0,0.5],[1,0.5]];portConstraint=eastwest;whiteSpace=wrap;html=1;" parent="BT73VBc6w89gyIfs_S2I-32" vertex="1">
          <mxGeometry y="130" width="160" height="26" as="geometry" />
        </mxCell>
        <mxCell id="BT73VBc6w89gyIfs_S2I-38" value="&lt;div&gt;CreatedAt: datetime&lt;/div&gt;&lt;div&gt;&lt;br&gt;&lt;/div&gt;" style="text;strokeColor=none;fillColor=none;align=left;verticalAlign=top;spacingLeft=4;spacingRight=4;overflow=hidden;rotatable=0;points=[[0,0.5],[1,0.5]];portConstraint=eastwest;whiteSpace=wrap;html=1;" parent="BT73VBc6w89gyIfs_S2I-32" vertex="1">
          <mxGeometry y="156" width="160" height="26" as="geometry" />
        </mxCell>
        <mxCell id="BT73VBc6w89gyIfs_S2I-39" value="&lt;div&gt;UpdatedAt: datetime&lt;/div&gt;&lt;div&gt;&lt;br&gt;&lt;/div&gt;" style="text;strokeColor=none;fillColor=none;align=left;verticalAlign=top;spacingLeft=4;spacingRight=4;overflow=hidden;rotatable=0;points=[[0,0.5],[1,0.5]];portConstraint=eastwest;whiteSpace=wrap;html=1;" parent="BT73VBc6w89gyIfs_S2I-32" vertex="1">
          <mxGeometry y="182" width="160" height="26" as="geometry" />
        </mxCell>
        <mxCell id="ciT1pMYd0xoITRaAQxl1-6" value="&lt;div&gt;KnowledgeBaseID: int [fk]&lt;br&gt;&lt;/div&gt;" style="text;strokeColor=none;fillColor=none;align=left;verticalAlign=top;spacingLeft=4;spacingRight=4;overflow=hidden;rotatable=0;points=[[0,0.5],[1,0.5]];portConstraint=eastwest;whiteSpace=wrap;html=1;" parent="BT73VBc6w89gyIfs_S2I-32" vertex="1">
          <mxGeometry y="208" width="160" height="26" as="geometry" />
        </mxCell>
        <mxCell id="BT73VBc6w89gyIfs_S2I-40" value="&lt;div&gt;UserId: int [fk]&lt;/div&gt;&lt;div&gt;&lt;br&gt;&lt;/div&gt;" style="text;strokeColor=none;fillColor=none;align=left;verticalAlign=top;spacingLeft=4;spacingRight=4;overflow=hidden;rotatable=0;points=[[0,0.5],[1,0.5]];portConstraint=eastwest;whiteSpace=wrap;html=1;" parent="BT73VBc6w89gyIfs_S2I-32" vertex="1">
          <mxGeometry y="234" width="160" height="26" as="geometry" />
        </mxCell>
        <mxCell id="BT73VBc6w89gyIfs_S2I-44" value="Comments" style="swimlane;fontStyle=0;childLayout=stackLayout;horizontal=1;startSize=26;fillColor=none;horizontalStack=0;resizeParent=1;resizeParentMax=0;resizeLast=0;collapsible=1;marginBottom=0;whiteSpace=wrap;html=1;" parent="1" vertex="1">
          <mxGeometry x="1123" y="1342" width="140" height="178" as="geometry" />
        </mxCell>
        <mxCell id="BT73VBc6w89gyIfs_S2I-45" value="&lt;div&gt;CommentID: int [pk]&lt;/div&gt;&lt;div&gt;&lt;br&gt;&lt;/div&gt;" style="text;strokeColor=none;fillColor=none;align=left;verticalAlign=top;spacingLeft=4;spacingRight=4;overflow=hidden;rotatable=0;points=[[0,0.5],[1,0.5]];portConstraint=eastwest;whiteSpace=wrap;html=1;" parent="BT73VBc6w89gyIfs_S2I-44" vertex="1">
          <mxGeometry y="26" width="140" height="22" as="geometry" />
        </mxCell>
        <mxCell id="BT73VBc6w89gyIfs_S2I-46" value="&lt;div&gt;Text: string&lt;/div&gt;&lt;div&gt;&lt;br&gt;&lt;/div&gt;" style="text;strokeColor=none;fillColor=none;align=left;verticalAlign=top;spacingLeft=4;spacingRight=4;overflow=hidden;rotatable=0;points=[[0,0.5],[1,0.5]];portConstraint=eastwest;whiteSpace=wrap;html=1;" parent="BT73VBc6w89gyIfs_S2I-44" vertex="1">
          <mxGeometry y="48" width="140" height="26" as="geometry" />
        </mxCell>
        <mxCell id="BT73VBc6w89gyIfs_S2I-47" value="&lt;div&gt;CreatedAt: datetime&lt;/div&gt;&lt;div&gt;&lt;br&gt;&lt;/div&gt;" style="text;strokeColor=none;fillColor=none;align=left;verticalAlign=top;spacingLeft=4;spacingRight=4;overflow=hidden;rotatable=0;points=[[0,0.5],[1,0.5]];portConstraint=eastwest;whiteSpace=wrap;html=1;" parent="BT73VBc6w89gyIfs_S2I-44" vertex="1">
          <mxGeometry y="74" width="140" height="26" as="geometry" />
        </mxCell>
        <mxCell id="BT73VBc6w89gyIfs_S2I-49" value="&lt;div&gt;RequestID: int [fk]&lt;/div&gt;&lt;div&gt;&lt;br&gt;&lt;/div&gt;" style="text;strokeColor=none;fillColor=none;align=left;verticalAlign=top;spacingLeft=4;spacingRight=4;overflow=hidden;rotatable=0;points=[[0,0.5],[1,0.5]];portConstraint=eastwest;whiteSpace=wrap;html=1;" parent="BT73VBc6w89gyIfs_S2I-44" vertex="1">
          <mxGeometry y="100" width="140" height="26" as="geometry" />
        </mxCell>
        <mxCell id="BT73VBc6w89gyIfs_S2I-50" value="&lt;div&gt;IncidentID: int [fk]&lt;/div&gt;&lt;div&gt;&lt;br&gt;&lt;/div&gt;" style="text;strokeColor=none;fillColor=none;align=left;verticalAlign=top;spacingLeft=4;spacingRight=4;overflow=hidden;rotatable=0;points=[[0,0.5],[1,0.5]];portConstraint=eastwest;whiteSpace=wrap;html=1;" parent="BT73VBc6w89gyIfs_S2I-44" vertex="1">
          <mxGeometry y="126" width="140" height="26" as="geometry" />
        </mxCell>
        <mxCell id="BT73VBc6w89gyIfs_S2I-48" value="&lt;div&gt;UserID: int [fk]&lt;/div&gt;" style="text;strokeColor=none;fillColor=none;align=left;verticalAlign=top;spacingLeft=4;spacingRight=4;overflow=hidden;rotatable=0;points=[[0,0.5],[1,0.5]];portConstraint=eastwest;whiteSpace=wrap;html=1;" parent="BT73VBc6w89gyIfs_S2I-44" vertex="1">
          <mxGeometry y="152" width="140" height="26" as="geometry" />
        </mxCell>
        <mxCell id="BT73VBc6w89gyIfs_S2I-56" value="Incidents" style="swimlane;fontStyle=0;childLayout=stackLayout;horizontal=1;startSize=26;fillColor=none;horizontalStack=0;resizeParent=1;resizeParentMax=0;resizeLast=0;collapsible=1;marginBottom=0;whiteSpace=wrap;html=1;" parent="1" vertex="1">
          <mxGeometry x="1347" y="1176" width="140" height="234" as="geometry" />
        </mxCell>
        <mxCell id="BT73VBc6w89gyIfs_S2I-57" value="&lt;div&gt;IncidentID: int [pk]&amp;nbsp;&lt;/div&gt;&lt;div&gt;&lt;br&gt;&lt;/div&gt;" style="text;strokeColor=none;fillColor=none;align=left;verticalAlign=top;spacingLeft=4;spacingRight=4;overflow=hidden;rotatable=0;points=[[0,0.5],[1,0.5]];portConstraint=eastwest;whiteSpace=wrap;html=1;" parent="BT73VBc6w89gyIfs_S2I-56" vertex="1">
          <mxGeometry y="26" width="140" height="26" as="geometry" />
        </mxCell>
        <mxCell id="BT73VBc6w89gyIfs_S2I-58" value="&lt;div&gt;Title: string&lt;/div&gt;&lt;div&gt;&lt;br&gt;&lt;/div&gt;" style="text;strokeColor=none;fillColor=none;align=left;verticalAlign=top;spacingLeft=4;spacingRight=4;overflow=hidden;rotatable=0;points=[[0,0.5],[1,0.5]];portConstraint=eastwest;whiteSpace=wrap;html=1;" parent="BT73VBc6w89gyIfs_S2I-56" vertex="1">
          <mxGeometry y="52" width="140" height="26" as="geometry" />
        </mxCell>
        <mxCell id="BT73VBc6w89gyIfs_S2I-59" value="&lt;div&gt;Description: string&lt;/div&gt;&lt;div&gt;&lt;br&gt;&lt;/div&gt;" style="text;strokeColor=none;fillColor=none;align=left;verticalAlign=top;spacingLeft=4;spacingRight=4;overflow=hidden;rotatable=0;points=[[0,0.5],[1,0.5]];portConstraint=eastwest;whiteSpace=wrap;html=1;" parent="BT73VBc6w89gyIfs_S2I-56" vertex="1">
          <mxGeometry y="78" width="140" height="26" as="geometry" />
        </mxCell>
        <mxCell id="BT73VBc6w89gyIfs_S2I-60" value="&lt;div&gt;Status: string&lt;/div&gt;&lt;div&gt;&lt;br&gt;&lt;/div&gt;" style="text;strokeColor=none;fillColor=none;align=left;verticalAlign=top;spacingLeft=4;spacingRight=4;overflow=hidden;rotatable=0;points=[[0,0.5],[1,0.5]];portConstraint=eastwest;whiteSpace=wrap;html=1;" parent="BT73VBc6w89gyIfs_S2I-56" vertex="1">
          <mxGeometry y="104" width="140" height="26" as="geometry" />
        </mxCell>
        <mxCell id="BT73VBc6w89gyIfs_S2I-61" value="&lt;div&gt;Priority: string&lt;/div&gt;&lt;div&gt;&lt;br&gt;&lt;/div&gt;" style="text;strokeColor=none;fillColor=none;align=left;verticalAlign=top;spacingLeft=4;spacingRight=4;overflow=hidden;rotatable=0;points=[[0,0.5],[1,0.5]];portConstraint=eastwest;whiteSpace=wrap;html=1;" parent="BT73VBc6w89gyIfs_S2I-56" vertex="1">
          <mxGeometry y="130" width="140" height="26" as="geometry" />
        </mxCell>
        <mxCell id="BT73VBc6w89gyIfs_S2I-62" value="&lt;div&gt;CreatedAt: datetime&lt;/div&gt;&lt;div&gt;&lt;br&gt;&lt;/div&gt;" style="text;strokeColor=none;fillColor=none;align=left;verticalAlign=top;spacingLeft=4;spacingRight=4;overflow=hidden;rotatable=0;points=[[0,0.5],[1,0.5]];portConstraint=eastwest;whiteSpace=wrap;html=1;" parent="BT73VBc6w89gyIfs_S2I-56" vertex="1">
          <mxGeometry y="156" width="140" height="26" as="geometry" />
        </mxCell>
        <mxCell id="BT73VBc6w89gyIfs_S2I-63" value="&lt;div&gt;ClosedAt: datetime&lt;/div&gt;&lt;div&gt;&lt;br&gt;&lt;/div&gt;" style="text;strokeColor=none;fillColor=none;align=left;verticalAlign=top;spacingLeft=4;spacingRight=4;overflow=hidden;rotatable=0;points=[[0,0.5],[1,0.5]];portConstraint=eastwest;whiteSpace=wrap;html=1;" parent="BT73VBc6w89gyIfs_S2I-56" vertex="1">
          <mxGeometry y="182" width="140" height="26" as="geometry" />
        </mxCell>
        <mxCell id="BT73VBc6w89gyIfs_S2I-95" value="&lt;div&gt;UserId: int [fk]&lt;/div&gt;&lt;div&gt;&lt;br&gt;&lt;/div&gt;" style="text;strokeColor=none;fillColor=none;align=left;verticalAlign=top;spacingLeft=4;spacingRight=4;overflow=hidden;rotatable=0;points=[[0,0.5],[1,0.5]];portConstraint=eastwest;whiteSpace=wrap;html=1;" parent="BT73VBc6w89gyIfs_S2I-56" vertex="1">
          <mxGeometry y="208" width="140" height="26" as="geometry" />
        </mxCell>
        <mxCell id="BT73VBc6w89gyIfs_S2I-70" value="&lt;div&gt;KnowledgeBase&lt;/div&gt;" style="swimlane;fontStyle=0;childLayout=stackLayout;horizontal=1;startSize=26;fillColor=none;horizontalStack=0;resizeParent=1;resizeParentMax=0;resizeLast=0;collapsible=1;marginBottom=0;whiteSpace=wrap;html=1;" parent="1" vertex="1">
          <mxGeometry x="1547" y="606" width="140" height="156" as="geometry" />
        </mxCell>
        <mxCell id="BT73VBc6w89gyIfs_S2I-71" value="&lt;div&gt;&lt;div&gt;ArticleID: int [pk]&lt;/div&gt;&lt;/div&gt;" style="text;strokeColor=none;fillColor=none;align=left;verticalAlign=top;spacingLeft=4;spacingRight=4;overflow=hidden;rotatable=0;points=[[0,0.5],[1,0.5]];portConstraint=eastwest;whiteSpace=wrap;html=1;" parent="BT73VBc6w89gyIfs_S2I-70" vertex="1">
          <mxGeometry y="26" width="140" height="26" as="geometry" />
        </mxCell>
        <mxCell id="BT73VBc6w89gyIfs_S2I-72" value="&lt;div&gt;&lt;div&gt;Title: string&lt;/div&gt;&lt;/div&gt;&lt;div&gt;&lt;br&gt;&lt;/div&gt;" style="text;strokeColor=none;fillColor=none;align=left;verticalAlign=top;spacingLeft=4;spacingRight=4;overflow=hidden;rotatable=0;points=[[0,0.5],[1,0.5]];portConstraint=eastwest;whiteSpace=wrap;html=1;" parent="BT73VBc6w89gyIfs_S2I-70" vertex="1">
          <mxGeometry y="52" width="140" height="26" as="geometry" />
        </mxCell>
        <mxCell id="BT73VBc6w89gyIfs_S2I-73" value="&lt;div&gt;&lt;div&gt;Content: string&lt;/div&gt;&lt;/div&gt;&lt;div&gt;&lt;br&gt;&lt;/div&gt;" style="text;strokeColor=none;fillColor=none;align=left;verticalAlign=top;spacingLeft=4;spacingRight=4;overflow=hidden;rotatable=0;points=[[0,0.5],[1,0.5]];portConstraint=eastwest;whiteSpace=wrap;html=1;" parent="BT73VBc6w89gyIfs_S2I-70" vertex="1">
          <mxGeometry y="78" width="140" height="26" as="geometry" />
        </mxCell>
        <mxCell id="BT73VBc6w89gyIfs_S2I-74" value="&lt;div&gt;&lt;div&gt;Category: string&lt;/div&gt;&lt;/div&gt;&lt;div&gt;&lt;br&gt;&lt;/div&gt;" style="text;strokeColor=none;fillColor=none;align=left;verticalAlign=top;spacingLeft=4;spacingRight=4;overflow=hidden;rotatable=0;points=[[0,0.5],[1,0.5]];portConstraint=eastwest;whiteSpace=wrap;html=1;" parent="BT73VBc6w89gyIfs_S2I-70" vertex="1">
          <mxGeometry y="104" width="140" height="26" as="geometry" />
        </mxCell>
        <mxCell id="BT73VBc6w89gyIfs_S2I-75" value="&lt;div&gt;&lt;div&gt;CreatedAt: datetime&lt;/div&gt;&lt;/div&gt;&lt;div&gt;&lt;br&gt;&lt;/div&gt;" style="text;strokeColor=none;fillColor=none;align=left;verticalAlign=top;spacingLeft=4;spacingRight=4;overflow=hidden;rotatable=0;points=[[0,0.5],[1,0.5]];portConstraint=eastwest;whiteSpace=wrap;html=1;" parent="BT73VBc6w89gyIfs_S2I-70" vertex="1">
          <mxGeometry y="130" width="140" height="26" as="geometry" />
        </mxCell>
        <mxCell id="BT73VBc6w89gyIfs_S2I-81" value="&lt;div&gt;Reports&lt;/div&gt;" style="swimlane;fontStyle=0;childLayout=stackLayout;horizontal=1;startSize=26;fillColor=none;horizontalStack=0;resizeParent=1;resizeParentMax=0;resizeLast=0;collapsible=1;marginBottom=0;whiteSpace=wrap;html=1;" parent="1" vertex="1">
          <mxGeometry x="1047" y="1046" width="140" height="178" as="geometry" />
        </mxCell>
        <mxCell id="BT73VBc6w89gyIfs_S2I-82" value="&lt;div&gt;&lt;div&gt;ReportID: int [pk]&lt;/div&gt;&lt;/div&gt;&lt;div&gt;&lt;br&gt;&lt;/div&gt;" style="text;strokeColor=none;fillColor=none;align=left;verticalAlign=top;spacingLeft=4;spacingRight=4;overflow=hidden;rotatable=0;points=[[0,0.5],[1,0.5]];portConstraint=eastwest;whiteSpace=wrap;html=1;" parent="BT73VBc6w89gyIfs_S2I-81" vertex="1">
          <mxGeometry y="26" width="140" height="22" as="geometry" />
        </mxCell>
        <mxCell id="BT73VBc6w89gyIfs_S2I-83" value="&lt;div&gt;&lt;div&gt;ReportType: string&lt;/div&gt;&lt;/div&gt;&lt;div&gt;&lt;br&gt;&lt;/div&gt;" style="text;strokeColor=none;fillColor=none;align=left;verticalAlign=top;spacingLeft=4;spacingRight=4;overflow=hidden;rotatable=0;points=[[0,0.5],[1,0.5]];portConstraint=eastwest;whiteSpace=wrap;html=1;" parent="BT73VBc6w89gyIfs_S2I-81" vertex="1">
          <mxGeometry y="48" width="140" height="26" as="geometry" />
        </mxCell>
        <mxCell id="BT73VBc6w89gyIfs_S2I-84" value="&lt;div&gt;&lt;div&gt;CreatedAt: datetime&lt;/div&gt;&lt;/div&gt;&lt;div&gt;&lt;br&gt;&lt;/div&gt;" style="text;strokeColor=none;fillColor=none;align=left;verticalAlign=top;spacingLeft=4;spacingRight=4;overflow=hidden;rotatable=0;points=[[0,0.5],[1,0.5]];portConstraint=eastwest;whiteSpace=wrap;html=1;" parent="BT73VBc6w89gyIfs_S2I-81" vertex="1">
          <mxGeometry y="74" width="140" height="26" as="geometry" />
        </mxCell>
        <mxCell id="BT73VBc6w89gyIfs_S2I-85" value="&lt;div&gt;&lt;div&gt;ReportData: string&lt;/div&gt;&lt;/div&gt;&lt;div&gt;&lt;br&gt;&lt;/div&gt;" style="text;strokeColor=none;fillColor=none;align=left;verticalAlign=top;spacingLeft=4;spacingRight=4;overflow=hidden;rotatable=0;points=[[0,0.5],[1,0.5]];portConstraint=eastwest;whiteSpace=wrap;html=1;" parent="BT73VBc6w89gyIfs_S2I-81" vertex="1">
          <mxGeometry y="100" width="140" height="26" as="geometry" />
        </mxCell>
        <mxCell id="BT73VBc6w89gyIfs_S2I-86" value="&lt;div&gt;&lt;div&gt;UserID: int [fk]&lt;/div&gt;&lt;/div&gt;&lt;div&gt;&lt;br&gt;&lt;/div&gt;" style="text;strokeColor=none;fillColor=none;align=left;verticalAlign=top;spacingLeft=4;spacingRight=4;overflow=hidden;rotatable=0;points=[[0,0.5],[1,0.5]];portConstraint=eastwest;whiteSpace=wrap;html=1;" parent="BT73VBc6w89gyIfs_S2I-81" vertex="1">
          <mxGeometry y="126" width="140" height="26" as="geometry" />
        </mxCell>
        <mxCell id="BT73VBc6w89gyIfs_S2I-87" value="&lt;div&gt;&lt;div&gt;+ RequestType: string&lt;/div&gt;&lt;/div&gt;&lt;div&gt;&lt;br&gt;&lt;/div&gt;" style="text;strokeColor=none;fillColor=none;align=left;verticalAlign=top;spacingLeft=4;spacingRight=4;overflow=hidden;rotatable=0;points=[[0,0.5],[1,0.5]];portConstraint=eastwest;whiteSpace=wrap;html=1;" parent="BT73VBc6w89gyIfs_S2I-81" vertex="1">
          <mxGeometry y="152" width="140" height="26" as="geometry" />
        </mxCell>
        <mxCell id="ciT1pMYd0xoITRaAQxl1-1" value="" style="endArrow=open;endFill=1;endSize=12;html=1;rounded=0;exitX=1;exitY=0.5;exitDx=0;exitDy=0;entryX=-0.007;entryY=0.549;entryDx=0;entryDy=0;entryPerimeter=0;" parent="1" source="BT73VBc6w89gyIfs_S2I-3" target="BT73VBc6w89gyIfs_S2I-40" edge="1">
          <mxGeometry width="160" relative="1" as="geometry">
            <mxPoint x="1397" y="836" as="sourcePoint" />
            <mxPoint x="1557" y="836" as="targetPoint" />
            <Array as="points">
              <mxPoint x="1483" y="815" />
              <mxPoint x="1483" y="935" />
              <mxPoint x="1483" y="1054" />
            </Array>
          </mxGeometry>
        </mxCell>
        <mxCell id="ciT1pMYd0xoITRaAQxl1-2" value="" style="endArrow=open;endFill=1;endSize=12;html=1;rounded=0;entryX=1.005;entryY=0.448;entryDx=0;entryDy=0;entryPerimeter=0;" parent="1" edge="1">
          <mxGeometry width="160" relative="1" as="geometry">
            <mxPoint x="1367" y="821" as="sourcePoint" />
            <mxPoint x="1487.6999999999998" y="1400.6479999999997" as="targetPoint" />
            <Array as="points">
              <mxPoint x="1457" y="821" />
              <mxPoint x="1457" y="1141" />
              <mxPoint x="1517" y="1141" />
              <mxPoint x="1517" y="1401" />
            </Array>
          </mxGeometry>
        </mxCell>
        <mxCell id="ciT1pMYd0xoITRaAQxl1-5" value="" style="endArrow=diamondThin;endFill=0;endSize=24;html=1;rounded=0;entryX=1.01;entryY=0.563;entryDx=0;entryDy=0;entryPerimeter=0;" parent="1" target="BT73VBc6w89gyIfs_S2I-49" edge="1">
          <mxGeometry width="160" relative="1" as="geometry">
            <mxPoint x="1707" y="846" as="sourcePoint" />
            <mxPoint x="1787" y="1366" as="targetPoint" />
            <Array as="points">
              <mxPoint x="1787" y="846" />
              <mxPoint x="1787" y="1457" />
            </Array>
          </mxGeometry>
        </mxCell>
        <mxCell id="ciT1pMYd0xoITRaAQxl1-7" value="" style="endArrow=diamondThin;endFill=0;endSize=24;html=1;rounded=0;exitX=-0.001;exitY=0.651;exitDx=0;exitDy=0;exitPerimeter=0;" parent="1" source="ciT1pMYd0xoITRaAQxl1-6" edge="1">
          <mxGeometry width="160" relative="1" as="geometry">
            <mxPoint x="1427" y="726" as="sourcePoint" />
            <mxPoint x="1547" y="646" as="targetPoint" />
            <Array as="points">
              <mxPoint x="1497" y="1031" />
              <mxPoint x="1497" y="646" />
            </Array>
          </mxGeometry>
        </mxCell>
        <mxCell id="ciT1pMYd0xoITRaAQxl1-8" value="" style="endArrow=open;endFill=1;endSize=12;html=1;rounded=0;exitX=0;exitY=0.5;exitDx=0;exitDy=0;" parent="1" source="BT73VBc6w89gyIfs_S2I-3" edge="1">
          <mxGeometry width="160" relative="1" as="geometry">
            <mxPoint x="1017" y="906" as="sourcePoint" />
            <mxPoint x="1047" y="1186" as="targetPoint" />
            <Array as="points">
              <mxPoint x="1017" y="816" />
              <mxPoint x="1017" y="1186" />
            </Array>
          </mxGeometry>
        </mxCell>
        <mxCell id="ciT1pMYd0xoITRaAQxl1-9" value="" style="endArrow=diamondThin;endFill=0;endSize=24;html=1;rounded=0;entryX=-0.003;entryY=0.594;entryDx=0;entryDy=0;entryPerimeter=0;" parent="1" target="BT73VBc6w89gyIfs_S2I-50" edge="1">
          <mxGeometry width="160" relative="1" as="geometry">
            <mxPoint x="1347" y="1216" as="sourcePoint" />
            <mxPoint x="1297" y="1516" as="targetPoint" />
            <Array as="points">
              <mxPoint x="1297" y="1216" />
              <mxPoint x="1297" y="1304" />
              <mxPoint x="1092" y="1306" />
              <mxPoint x="1090" y="1485" />
            </Array>
          </mxGeometry>
        </mxCell>
        <mxCell id="ip5SDqEOvisrCATGqPH5-1" value="Users" style="shape=table;startSize=30;container=1;collapsible=1;childLayout=tableLayout;fixedRows=1;rowLines=0;fontStyle=1;align=center;resizeLast=1;html=1;" parent="1" vertex="1">
          <mxGeometry x="234" y="-501" width="180" height="239" as="geometry" />
        </mxCell>
        <mxCell id="ip5SDqEOvisrCATGqPH5-2" value="" style="shape=tableRow;horizontal=0;startSize=0;swimlaneHead=0;swimlaneBody=0;fillColor=none;collapsible=0;dropTarget=0;points=[[0,0.5],[1,0.5]];portConstraint=eastwest;top=0;left=0;right=0;bottom=1;" parent="ip5SDqEOvisrCATGqPH5-1" vertex="1">
          <mxGeometry y="30" width="180" height="30" as="geometry" />
        </mxCell>
        <mxCell id="ip5SDqEOvisrCATGqPH5-3" value="PK" style="shape=partialRectangle;connectable=0;fillColor=none;top=0;left=0;bottom=0;right=0;fontStyle=1;overflow=hidden;whiteSpace=wrap;html=1;" parent="ip5SDqEOvisrCATGqPH5-2" vertex="1">
          <mxGeometry width="30" height="30" as="geometry">
            <mxRectangle width="30" height="30" as="alternateBounds" />
          </mxGeometry>
        </mxCell>
        <mxCell id="ip5SDqEOvisrCATGqPH5-4" value="UserID" style="shape=partialRectangle;connectable=0;fillColor=none;top=0;left=0;bottom=0;right=0;align=left;spacingLeft=6;fontStyle=5;overflow=hidden;whiteSpace=wrap;html=1;" parent="ip5SDqEOvisrCATGqPH5-2" vertex="1">
          <mxGeometry x="30" width="150" height="30" as="geometry">
            <mxRectangle width="150" height="30" as="alternateBounds" />
          </mxGeometry>
        </mxCell>
        <mxCell id="ip5SDqEOvisrCATGqPH5-8" value="" style="shape=tableRow;horizontal=0;startSize=0;swimlaneHead=0;swimlaneBody=0;fillColor=none;collapsible=0;dropTarget=0;points=[[0,0.5],[1,0.5]];portConstraint=eastwest;top=0;left=0;right=0;bottom=0;" parent="ip5SDqEOvisrCATGqPH5-1" vertex="1">
          <mxGeometry y="60" width="180" height="24" as="geometry" />
        </mxCell>
        <mxCell id="ip5SDqEOvisrCATGqPH5-9" value="" style="shape=partialRectangle;connectable=0;fillColor=none;top=0;left=0;bottom=0;right=0;editable=1;overflow=hidden;whiteSpace=wrap;html=1;" parent="ip5SDqEOvisrCATGqPH5-8" vertex="1">
          <mxGeometry width="30" height="24" as="geometry">
            <mxRectangle width="30" height="24" as="alternateBounds" />
          </mxGeometry>
        </mxCell>
        <mxCell id="ip5SDqEOvisrCATGqPH5-10" value="FirstName" style="shape=partialRectangle;connectable=0;fillColor=none;top=0;left=0;bottom=0;right=0;align=left;spacingLeft=6;overflow=hidden;whiteSpace=wrap;html=1;" parent="ip5SDqEOvisrCATGqPH5-8" vertex="1">
          <mxGeometry x="30" width="150" height="24" as="geometry">
            <mxRectangle width="150" height="24" as="alternateBounds" />
          </mxGeometry>
        </mxCell>
        <mxCell id="ip5SDqEOvisrCATGqPH5-11" value="" style="shape=tableRow;horizontal=0;startSize=0;swimlaneHead=0;swimlaneBody=0;fillColor=none;collapsible=0;dropTarget=0;points=[[0,0.5],[1,0.5]];portConstraint=eastwest;top=0;left=0;right=0;bottom=0;" parent="ip5SDqEOvisrCATGqPH5-1" vertex="1">
          <mxGeometry y="84" width="180" height="35" as="geometry" />
        </mxCell>
        <mxCell id="ip5SDqEOvisrCATGqPH5-12" value="" style="shape=partialRectangle;connectable=0;fillColor=none;top=0;left=0;bottom=0;right=0;editable=1;overflow=hidden;whiteSpace=wrap;html=1;" parent="ip5SDqEOvisrCATGqPH5-11" vertex="1">
          <mxGeometry width="30" height="35" as="geometry">
            <mxRectangle width="30" height="35" as="alternateBounds" />
          </mxGeometry>
        </mxCell>
        <mxCell id="ip5SDqEOvisrCATGqPH5-13" value="LastName" style="shape=partialRectangle;connectable=0;fillColor=none;top=0;left=0;bottom=0;right=0;align=left;spacingLeft=6;overflow=hidden;whiteSpace=wrap;html=1;" parent="ip5SDqEOvisrCATGqPH5-11" vertex="1">
          <mxGeometry x="30" width="150" height="35" as="geometry">
            <mxRectangle width="150" height="35" as="alternateBounds" />
          </mxGeometry>
        </mxCell>
        <mxCell id="ip5SDqEOvisrCATGqPH5-38" value="" style="shape=tableRow;horizontal=0;startSize=0;swimlaneHead=0;swimlaneBody=0;fillColor=none;collapsible=0;dropTarget=0;points=[[0,0.5],[1,0.5]];portConstraint=eastwest;top=0;left=0;right=0;bottom=0;" parent="ip5SDqEOvisrCATGqPH5-1" vertex="1">
          <mxGeometry y="119" width="180" height="30" as="geometry" />
        </mxCell>
        <mxCell id="ip5SDqEOvisrCATGqPH5-39" value="" style="shape=partialRectangle;connectable=0;fillColor=none;top=0;left=0;bottom=0;right=0;editable=1;overflow=hidden;whiteSpace=wrap;html=1;" parent="ip5SDqEOvisrCATGqPH5-38" vertex="1">
          <mxGeometry width="30" height="30" as="geometry">
            <mxRectangle width="30" height="30" as="alternateBounds" />
          </mxGeometry>
        </mxCell>
        <mxCell id="ip5SDqEOvisrCATGqPH5-40" value="UserName" style="shape=partialRectangle;connectable=0;fillColor=none;top=0;left=0;bottom=0;right=0;align=left;spacingLeft=6;overflow=hidden;whiteSpace=wrap;html=1;" parent="ip5SDqEOvisrCATGqPH5-38" vertex="1">
          <mxGeometry x="30" width="150" height="30" as="geometry">
            <mxRectangle width="150" height="30" as="alternateBounds" />
          </mxGeometry>
        </mxCell>
        <mxCell id="ip5SDqEOvisrCATGqPH5-41" value="" style="shape=tableRow;horizontal=0;startSize=0;swimlaneHead=0;swimlaneBody=0;fillColor=none;collapsible=0;dropTarget=0;points=[[0,0.5],[1,0.5]];portConstraint=eastwest;top=0;left=0;right=0;bottom=0;" parent="ip5SDqEOvisrCATGqPH5-1" vertex="1">
          <mxGeometry y="149" width="180" height="30" as="geometry" />
        </mxCell>
        <mxCell id="ip5SDqEOvisrCATGqPH5-42" value="" style="shape=partialRectangle;connectable=0;fillColor=none;top=0;left=0;bottom=0;right=0;editable=1;overflow=hidden;whiteSpace=wrap;html=1;" parent="ip5SDqEOvisrCATGqPH5-41" vertex="1">
          <mxGeometry width="30" height="30" as="geometry">
            <mxRectangle width="30" height="30" as="alternateBounds" />
          </mxGeometry>
        </mxCell>
        <mxCell id="ip5SDqEOvisrCATGqPH5-43" value="Email" style="shape=partialRectangle;connectable=0;fillColor=none;top=0;left=0;bottom=0;right=0;align=left;spacingLeft=6;overflow=hidden;whiteSpace=wrap;html=1;" parent="ip5SDqEOvisrCATGqPH5-41" vertex="1">
          <mxGeometry x="30" width="150" height="30" as="geometry">
            <mxRectangle width="150" height="30" as="alternateBounds" />
          </mxGeometry>
        </mxCell>
        <mxCell id="ip5SDqEOvisrCATGqPH5-44" value="" style="shape=tableRow;horizontal=0;startSize=0;swimlaneHead=0;swimlaneBody=0;fillColor=none;collapsible=0;dropTarget=0;points=[[0,0.5],[1,0.5]];portConstraint=eastwest;top=0;left=0;right=0;bottom=0;" parent="ip5SDqEOvisrCATGqPH5-1" vertex="1">
          <mxGeometry y="179" width="180" height="30" as="geometry" />
        </mxCell>
        <mxCell id="ip5SDqEOvisrCATGqPH5-45" value="" style="shape=partialRectangle;connectable=0;fillColor=none;top=0;left=0;bottom=0;right=0;editable=1;overflow=hidden;whiteSpace=wrap;html=1;" parent="ip5SDqEOvisrCATGqPH5-44" vertex="1">
          <mxGeometry width="30" height="30" as="geometry">
            <mxRectangle width="30" height="30" as="alternateBounds" />
          </mxGeometry>
        </mxCell>
        <mxCell id="ip5SDqEOvisrCATGqPH5-46" value="Role" style="shape=partialRectangle;connectable=0;fillColor=none;top=0;left=0;bottom=0;right=0;align=left;spacingLeft=6;overflow=hidden;whiteSpace=wrap;html=1;" parent="ip5SDqEOvisrCATGqPH5-44" vertex="1">
          <mxGeometry x="30" width="150" height="30" as="geometry">
            <mxRectangle width="150" height="30" as="alternateBounds" />
          </mxGeometry>
        </mxCell>
        <mxCell id="ip5SDqEOvisrCATGqPH5-47" value="" style="shape=tableRow;horizontal=0;startSize=0;swimlaneHead=0;swimlaneBody=0;fillColor=none;collapsible=0;dropTarget=0;points=[[0,0.5],[1,0.5]];portConstraint=eastwest;top=0;left=0;right=0;bottom=0;" parent="ip5SDqEOvisrCATGqPH5-1" vertex="1">
          <mxGeometry y="209" width="180" height="30" as="geometry" />
        </mxCell>
        <mxCell id="ip5SDqEOvisrCATGqPH5-48" value="" style="shape=partialRectangle;connectable=0;fillColor=none;top=0;left=0;bottom=0;right=0;editable=1;overflow=hidden;whiteSpace=wrap;html=1;" parent="ip5SDqEOvisrCATGqPH5-47" vertex="1">
          <mxGeometry width="30" height="30" as="geometry">
            <mxRectangle width="30" height="30" as="alternateBounds" />
          </mxGeometry>
        </mxCell>
        <mxCell id="ip5SDqEOvisrCATGqPH5-49" value="UserFullName" style="shape=partialRectangle;connectable=0;fillColor=none;top=0;left=0;bottom=0;right=0;align=left;spacingLeft=6;overflow=hidden;whiteSpace=wrap;html=1;" parent="ip5SDqEOvisrCATGqPH5-47" vertex="1">
          <mxGeometry x="30" width="150" height="30" as="geometry">
            <mxRectangle width="150" height="30" as="alternateBounds" />
          </mxGeometry>
        </mxCell>
        <mxCell id="ip5SDqEOvisrCATGqPH5-69" value="KnowledgeBase" style="shape=table;startSize=30;container=1;collapsible=1;childLayout=tableLayout;fixedRows=1;rowLines=0;fontStyle=1;align=center;resizeLast=1;html=1;" parent="1" vertex="1">
          <mxGeometry x="790" y="-732" width="180" height="209" as="geometry" />
        </mxCell>
        <mxCell id="ip5SDqEOvisrCATGqPH5-70" value="" style="shape=tableRow;horizontal=0;startSize=0;swimlaneHead=0;swimlaneBody=0;fillColor=none;collapsible=0;dropTarget=0;points=[[0,0.5],[1,0.5]];portConstraint=eastwest;top=0;left=0;right=0;bottom=1;" parent="ip5SDqEOvisrCATGqPH5-69" vertex="1">
          <mxGeometry y="30" width="180" height="30" as="geometry" />
        </mxCell>
        <mxCell id="ip5SDqEOvisrCATGqPH5-71" value="PK" style="shape=partialRectangle;connectable=0;fillColor=none;top=0;left=0;bottom=0;right=0;fontStyle=1;overflow=hidden;whiteSpace=wrap;html=1;" parent="ip5SDqEOvisrCATGqPH5-70" vertex="1">
          <mxGeometry width="30" height="30" as="geometry">
            <mxRectangle width="30" height="30" as="alternateBounds" />
          </mxGeometry>
        </mxCell>
        <mxCell id="ip5SDqEOvisrCATGqPH5-72" value="ArticleID" style="shape=partialRectangle;connectable=0;fillColor=none;top=0;left=0;bottom=0;right=0;align=left;spacingLeft=6;fontStyle=5;overflow=hidden;whiteSpace=wrap;html=1;" parent="ip5SDqEOvisrCATGqPH5-70" vertex="1">
          <mxGeometry x="30" width="150" height="30" as="geometry">
            <mxRectangle width="150" height="30" as="alternateBounds" />
          </mxGeometry>
        </mxCell>
        <mxCell id="ip5SDqEOvisrCATGqPH5-73" value="" style="shape=tableRow;horizontal=0;startSize=0;swimlaneHead=0;swimlaneBody=0;fillColor=none;collapsible=0;dropTarget=0;points=[[0,0.5],[1,0.5]];portConstraint=eastwest;top=0;left=0;right=0;bottom=0;" parent="ip5SDqEOvisrCATGqPH5-69" vertex="1">
          <mxGeometry y="60" width="180" height="24" as="geometry" />
        </mxCell>
        <mxCell id="ip5SDqEOvisrCATGqPH5-74" value="" style="shape=partialRectangle;connectable=0;fillColor=none;top=0;left=0;bottom=0;right=0;editable=1;overflow=hidden;whiteSpace=wrap;html=1;" parent="ip5SDqEOvisrCATGqPH5-73" vertex="1">
          <mxGeometry width="30" height="24" as="geometry">
            <mxRectangle width="30" height="24" as="alternateBounds" />
          </mxGeometry>
        </mxCell>
        <mxCell id="ip5SDqEOvisrCATGqPH5-75" value="Title" style="shape=partialRectangle;connectable=0;fillColor=none;top=0;left=0;bottom=0;right=0;align=left;spacingLeft=6;overflow=hidden;whiteSpace=wrap;html=1;" parent="ip5SDqEOvisrCATGqPH5-73" vertex="1">
          <mxGeometry x="30" width="150" height="24" as="geometry">
            <mxRectangle width="150" height="24" as="alternateBounds" />
          </mxGeometry>
        </mxCell>
        <mxCell id="ip5SDqEOvisrCATGqPH5-76" value="" style="shape=tableRow;horizontal=0;startSize=0;swimlaneHead=0;swimlaneBody=0;fillColor=none;collapsible=0;dropTarget=0;points=[[0,0.5],[1,0.5]];portConstraint=eastwest;top=0;left=0;right=0;bottom=0;" parent="ip5SDqEOvisrCATGqPH5-69" vertex="1">
          <mxGeometry y="84" width="180" height="35" as="geometry" />
        </mxCell>
        <mxCell id="ip5SDqEOvisrCATGqPH5-77" value="" style="shape=partialRectangle;connectable=0;fillColor=none;top=0;left=0;bottom=0;right=0;editable=1;overflow=hidden;whiteSpace=wrap;html=1;" parent="ip5SDqEOvisrCATGqPH5-76" vertex="1">
          <mxGeometry width="30" height="35" as="geometry">
            <mxRectangle width="30" height="35" as="alternateBounds" />
          </mxGeometry>
        </mxCell>
        <mxCell id="ip5SDqEOvisrCATGqPH5-78" value="Content" style="shape=partialRectangle;connectable=0;fillColor=none;top=0;left=0;bottom=0;right=0;align=left;spacingLeft=6;overflow=hidden;whiteSpace=wrap;html=1;" parent="ip5SDqEOvisrCATGqPH5-76" vertex="1">
          <mxGeometry x="30" width="150" height="35" as="geometry">
            <mxRectangle width="150" height="35" as="alternateBounds" />
          </mxGeometry>
        </mxCell>
        <mxCell id="ip5SDqEOvisrCATGqPH5-79" value="" style="shape=tableRow;horizontal=0;startSize=0;swimlaneHead=0;swimlaneBody=0;fillColor=none;collapsible=0;dropTarget=0;points=[[0,0.5],[1,0.5]];portConstraint=eastwest;top=0;left=0;right=0;bottom=0;" parent="ip5SDqEOvisrCATGqPH5-69" vertex="1">
          <mxGeometry y="119" width="180" height="30" as="geometry" />
        </mxCell>
        <mxCell id="ip5SDqEOvisrCATGqPH5-80" value="" style="shape=partialRectangle;connectable=0;fillColor=none;top=0;left=0;bottom=0;right=0;editable=1;overflow=hidden;whiteSpace=wrap;html=1;" parent="ip5SDqEOvisrCATGqPH5-79" vertex="1">
          <mxGeometry width="30" height="30" as="geometry">
            <mxRectangle width="30" height="30" as="alternateBounds" />
          </mxGeometry>
        </mxCell>
        <mxCell id="ip5SDqEOvisrCATGqPH5-81" value="Category" style="shape=partialRectangle;connectable=0;fillColor=none;top=0;left=0;bottom=0;right=0;align=left;spacingLeft=6;overflow=hidden;whiteSpace=wrap;html=1;" parent="ip5SDqEOvisrCATGqPH5-79" vertex="1">
          <mxGeometry x="30" width="150" height="30" as="geometry">
            <mxRectangle width="150" height="30" as="alternateBounds" />
          </mxGeometry>
        </mxCell>
        <mxCell id="ip5SDqEOvisrCATGqPH5-82" value="" style="shape=tableRow;horizontal=0;startSize=0;swimlaneHead=0;swimlaneBody=0;fillColor=none;collapsible=0;dropTarget=0;points=[[0,0.5],[1,0.5]];portConstraint=eastwest;top=0;left=0;right=0;bottom=0;" parent="ip5SDqEOvisrCATGqPH5-69" vertex="1">
          <mxGeometry y="149" width="180" height="30" as="geometry" />
        </mxCell>
        <mxCell id="ip5SDqEOvisrCATGqPH5-83" value="" style="shape=partialRectangle;connectable=0;fillColor=none;top=0;left=0;bottom=0;right=0;editable=1;overflow=hidden;whiteSpace=wrap;html=1;" parent="ip5SDqEOvisrCATGqPH5-82" vertex="1">
          <mxGeometry width="30" height="30" as="geometry">
            <mxRectangle width="30" height="30" as="alternateBounds" />
          </mxGeometry>
        </mxCell>
        <mxCell id="ip5SDqEOvisrCATGqPH5-84" value="CreatedAt" style="shape=partialRectangle;connectable=0;fillColor=none;top=0;left=0;bottom=0;right=0;align=left;spacingLeft=6;overflow=hidden;whiteSpace=wrap;html=1;" parent="ip5SDqEOvisrCATGqPH5-82" vertex="1">
          <mxGeometry x="30" width="150" height="30" as="geometry">
            <mxRectangle width="150" height="30" as="alternateBounds" />
          </mxGeometry>
        </mxCell>
        <mxCell id="ip5SDqEOvisrCATGqPH5-85" value="" style="shape=tableRow;horizontal=0;startSize=0;swimlaneHead=0;swimlaneBody=0;fillColor=none;collapsible=0;dropTarget=0;points=[[0,0.5],[1,0.5]];portConstraint=eastwest;top=0;left=0;right=0;bottom=0;" parent="ip5SDqEOvisrCATGqPH5-69" vertex="1">
          <mxGeometry y="179" width="180" height="30" as="geometry" />
        </mxCell>
        <mxCell id="ip5SDqEOvisrCATGqPH5-86" value="" style="shape=partialRectangle;connectable=0;fillColor=none;top=0;left=0;bottom=0;right=0;editable=1;overflow=hidden;whiteSpace=wrap;html=1;" parent="ip5SDqEOvisrCATGqPH5-85" vertex="1">
          <mxGeometry width="30" height="30" as="geometry">
            <mxRectangle width="30" height="30" as="alternateBounds" />
          </mxGeometry>
        </mxCell>
        <mxCell id="ip5SDqEOvisrCATGqPH5-87" value="" style="shape=partialRectangle;connectable=0;fillColor=none;top=0;left=0;bottom=0;right=0;align=left;spacingLeft=6;overflow=hidden;whiteSpace=wrap;html=1;" parent="ip5SDqEOvisrCATGqPH5-85" vertex="1">
          <mxGeometry x="30" width="150" height="30" as="geometry">
            <mxRectangle width="150" height="30" as="alternateBounds" />
          </mxGeometry>
        </mxCell>
        <mxCell id="ip5SDqEOvisrCATGqPH5-91" value="Requests" style="shape=table;startSize=30;container=1;collapsible=1;childLayout=tableLayout;fixedRows=1;rowLines=0;fontStyle=1;align=center;resizeLast=1;html=1;" parent="1" vertex="1">
          <mxGeometry x="544" y="-411" width="180" height="330" as="geometry" />
        </mxCell>
        <mxCell id="ip5SDqEOvisrCATGqPH5-92" value="" style="shape=tableRow;horizontal=0;startSize=0;swimlaneHead=0;swimlaneBody=0;fillColor=none;collapsible=0;dropTarget=0;points=[[0,0.5],[1,0.5]];portConstraint=eastwest;top=0;left=0;right=0;bottom=1;" parent="ip5SDqEOvisrCATGqPH5-91" vertex="1">
          <mxGeometry y="30" width="180" height="31" as="geometry" />
        </mxCell>
        <mxCell id="ip5SDqEOvisrCATGqPH5-93" value="PK" style="shape=partialRectangle;connectable=0;fillColor=none;top=0;left=0;bottom=0;right=0;fontStyle=1;overflow=hidden;whiteSpace=wrap;html=1;" parent="ip5SDqEOvisrCATGqPH5-92" vertex="1">
          <mxGeometry width="30.170445368840205" height="31" as="geometry">
            <mxRectangle width="30.170445368840205" height="31" as="alternateBounds" />
          </mxGeometry>
        </mxCell>
        <mxCell id="ip5SDqEOvisrCATGqPH5-94" value="RequestID" style="shape=partialRectangle;connectable=0;fillColor=none;top=0;left=0;bottom=0;right=0;align=left;spacingLeft=6;fontStyle=5;overflow=hidden;whiteSpace=wrap;html=1;" parent="ip5SDqEOvisrCATGqPH5-92" vertex="1">
          <mxGeometry x="30.170445368840205" width="149.8295546311598" height="31" as="geometry">
            <mxRectangle width="149.8295546311598" height="31" as="alternateBounds" />
          </mxGeometry>
        </mxCell>
        <mxCell id="ip5SDqEOvisrCATGqPH5-113" value="" style="shape=tableRow;horizontal=0;startSize=0;swimlaneHead=0;swimlaneBody=0;fillColor=none;collapsible=0;dropTarget=0;points=[[0,0.5],[1,0.5]];portConstraint=eastwest;top=0;left=0;right=0;bottom=1;" parent="ip5SDqEOvisrCATGqPH5-91" vertex="1">
          <mxGeometry y="61" width="180" height="30" as="geometry" />
        </mxCell>
        <mxCell id="ip5SDqEOvisrCATGqPH5-114" value="FK" style="shape=partialRectangle;connectable=0;fillColor=none;top=0;left=0;bottom=0;right=0;fontStyle=1;overflow=hidden;whiteSpace=wrap;html=1;" parent="ip5SDqEOvisrCATGqPH5-113" vertex="1">
          <mxGeometry width="30.170445368840205" height="30" as="geometry">
            <mxRectangle width="30.170445368840205" height="30" as="alternateBounds" />
          </mxGeometry>
        </mxCell>
        <mxCell id="ip5SDqEOvisrCATGqPH5-115" value="KnowledgeBaseID" style="shape=partialRectangle;connectable=0;fillColor=none;top=0;left=0;bottom=0;right=0;align=left;spacingLeft=6;fontStyle=5;overflow=hidden;whiteSpace=wrap;html=1;" parent="ip5SDqEOvisrCATGqPH5-113" vertex="1">
          <mxGeometry x="30.170445368840205" width="149.8295546311598" height="30" as="geometry">
            <mxRectangle width="149.8295546311598" height="30" as="alternateBounds" />
          </mxGeometry>
        </mxCell>
        <mxCell id="ip5SDqEOvisrCATGqPH5-141" value="" style="shape=tableRow;horizontal=0;startSize=0;swimlaneHead=0;swimlaneBody=0;fillColor=none;collapsible=0;dropTarget=0;points=[[0,0.5],[1,0.5]];portConstraint=eastwest;top=0;left=0;right=0;bottom=1;" parent="ip5SDqEOvisrCATGqPH5-91" vertex="1">
          <mxGeometry y="91" width="180" height="30" as="geometry" />
        </mxCell>
        <mxCell id="ip5SDqEOvisrCATGqPH5-142" value="FK" style="shape=partialRectangle;connectable=0;fillColor=none;top=0;left=0;bottom=0;right=0;fontStyle=1;overflow=hidden;whiteSpace=wrap;html=1;" parent="ip5SDqEOvisrCATGqPH5-141" vertex="1">
          <mxGeometry width="30.170445368840205" height="30" as="geometry">
            <mxRectangle width="30.170445368840205" height="30" as="alternateBounds" />
          </mxGeometry>
        </mxCell>
        <mxCell id="ip5SDqEOvisrCATGqPH5-143" value="UserId" style="shape=partialRectangle;connectable=0;fillColor=none;top=0;left=0;bottom=0;right=0;align=left;spacingLeft=6;fontStyle=5;overflow=hidden;whiteSpace=wrap;html=1;" parent="ip5SDqEOvisrCATGqPH5-141" vertex="1">
          <mxGeometry x="30.170445368840205" width="149.8295546311598" height="30" as="geometry">
            <mxRectangle width="149.8295546311598" height="30" as="alternateBounds" />
          </mxGeometry>
        </mxCell>
        <mxCell id="ip5SDqEOvisrCATGqPH5-95" value="" style="shape=tableRow;horizontal=0;startSize=0;swimlaneHead=0;swimlaneBody=0;fillColor=none;collapsible=0;dropTarget=0;points=[[0,0.5],[1,0.5]];portConstraint=eastwest;top=0;left=0;right=0;bottom=0;" parent="ip5SDqEOvisrCATGqPH5-91" vertex="1">
          <mxGeometry y="121" width="180" height="24" as="geometry" />
        </mxCell>
        <mxCell id="ip5SDqEOvisrCATGqPH5-96" value="" style="shape=partialRectangle;connectable=0;fillColor=none;top=0;left=0;bottom=0;right=0;editable=1;overflow=hidden;whiteSpace=wrap;html=1;" parent="ip5SDqEOvisrCATGqPH5-95" vertex="1">
          <mxGeometry width="30.170445368840205" height="24" as="geometry">
            <mxRectangle width="30.170445368840205" height="24" as="alternateBounds" />
          </mxGeometry>
        </mxCell>
        <mxCell id="ip5SDqEOvisrCATGqPH5-97" value="Title" style="shape=partialRectangle;connectable=0;fillColor=none;top=0;left=0;bottom=0;right=0;align=left;spacingLeft=6;overflow=hidden;whiteSpace=wrap;html=1;" parent="ip5SDqEOvisrCATGqPH5-95" vertex="1">
          <mxGeometry x="30.170445368840205" width="149.8295546311598" height="24" as="geometry">
            <mxRectangle width="149.8295546311598" height="24" as="alternateBounds" />
          </mxGeometry>
        </mxCell>
        <mxCell id="ip5SDqEOvisrCATGqPH5-98" value="" style="shape=tableRow;horizontal=0;startSize=0;swimlaneHead=0;swimlaneBody=0;fillColor=none;collapsible=0;dropTarget=0;points=[[0,0.5],[1,0.5]];portConstraint=eastwest;top=0;left=0;right=0;bottom=0;" parent="ip5SDqEOvisrCATGqPH5-91" vertex="1">
          <mxGeometry y="145" width="180" height="35" as="geometry" />
        </mxCell>
        <mxCell id="ip5SDqEOvisrCATGqPH5-99" value="" style="shape=partialRectangle;connectable=0;fillColor=none;top=0;left=0;bottom=0;right=0;editable=1;overflow=hidden;whiteSpace=wrap;html=1;" parent="ip5SDqEOvisrCATGqPH5-98" vertex="1">
          <mxGeometry width="30.170445368840205" height="35" as="geometry">
            <mxRectangle width="30.170445368840205" height="35" as="alternateBounds" />
          </mxGeometry>
        </mxCell>
        <mxCell id="ip5SDqEOvisrCATGqPH5-100" value="Description" style="shape=partialRectangle;connectable=0;fillColor=none;top=0;left=0;bottom=0;right=0;align=left;spacingLeft=6;overflow=hidden;whiteSpace=wrap;html=1;" parent="ip5SDqEOvisrCATGqPH5-98" vertex="1">
          <mxGeometry x="30.170445368840205" width="149.8295546311598" height="35" as="geometry">
            <mxRectangle width="149.8295546311598" height="35" as="alternateBounds" />
          </mxGeometry>
        </mxCell>
        <mxCell id="ip5SDqEOvisrCATGqPH5-101" value="" style="shape=tableRow;horizontal=0;startSize=0;swimlaneHead=0;swimlaneBody=0;fillColor=none;collapsible=0;dropTarget=0;points=[[0,0.5],[1,0.5]];portConstraint=eastwest;top=0;left=0;right=0;bottom=0;" parent="ip5SDqEOvisrCATGqPH5-91" vertex="1">
          <mxGeometry y="180" width="180" height="30" as="geometry" />
        </mxCell>
        <mxCell id="ip5SDqEOvisrCATGqPH5-102" value="" style="shape=partialRectangle;connectable=0;fillColor=none;top=0;left=0;bottom=0;right=0;editable=1;overflow=hidden;whiteSpace=wrap;html=1;" parent="ip5SDqEOvisrCATGqPH5-101" vertex="1">
          <mxGeometry width="30.170445368840205" height="30" as="geometry">
            <mxRectangle width="30.170445368840205" height="30" as="alternateBounds" />
          </mxGeometry>
        </mxCell>
        <mxCell id="ip5SDqEOvisrCATGqPH5-103" value="Status" style="shape=partialRectangle;connectable=0;fillColor=none;top=0;left=0;bottom=0;right=0;align=left;spacingLeft=6;overflow=hidden;whiteSpace=wrap;html=1;" parent="ip5SDqEOvisrCATGqPH5-101" vertex="1">
          <mxGeometry x="30.170445368840205" width="149.8295546311598" height="30" as="geometry">
            <mxRectangle width="149.8295546311598" height="30" as="alternateBounds" />
          </mxGeometry>
        </mxCell>
        <mxCell id="ip5SDqEOvisrCATGqPH5-104" value="" style="shape=tableRow;horizontal=0;startSize=0;swimlaneHead=0;swimlaneBody=0;fillColor=none;collapsible=0;dropTarget=0;points=[[0,0.5],[1,0.5]];portConstraint=eastwest;top=0;left=0;right=0;bottom=0;" parent="ip5SDqEOvisrCATGqPH5-91" vertex="1">
          <mxGeometry y="210" width="180" height="30" as="geometry" />
        </mxCell>
        <mxCell id="ip5SDqEOvisrCATGqPH5-105" value="" style="shape=partialRectangle;connectable=0;fillColor=none;top=0;left=0;bottom=0;right=0;editable=1;overflow=hidden;whiteSpace=wrap;html=1;" parent="ip5SDqEOvisrCATGqPH5-104" vertex="1">
          <mxGeometry width="30.170445368840205" height="30" as="geometry">
            <mxRectangle width="30.170445368840205" height="30" as="alternateBounds" />
          </mxGeometry>
        </mxCell>
        <mxCell id="ip5SDqEOvisrCATGqPH5-106" value="Priority" style="shape=partialRectangle;connectable=0;fillColor=none;top=0;left=0;bottom=0;right=0;align=left;spacingLeft=6;overflow=hidden;whiteSpace=wrap;html=1;" parent="ip5SDqEOvisrCATGqPH5-104" vertex="1">
          <mxGeometry x="30.170445368840205" width="149.8295546311598" height="30" as="geometry">
            <mxRectangle width="149.8295546311598" height="30" as="alternateBounds" />
          </mxGeometry>
        </mxCell>
        <mxCell id="ip5SDqEOvisrCATGqPH5-107" value="" style="shape=tableRow;horizontal=0;startSize=0;swimlaneHead=0;swimlaneBody=0;fillColor=none;collapsible=0;dropTarget=0;points=[[0,0.5],[1,0.5]];portConstraint=eastwest;top=0;left=0;right=0;bottom=0;" parent="ip5SDqEOvisrCATGqPH5-91" vertex="1">
          <mxGeometry y="240" width="180" height="30" as="geometry" />
        </mxCell>
        <mxCell id="ip5SDqEOvisrCATGqPH5-108" value="" style="shape=partialRectangle;connectable=0;fillColor=none;top=0;left=0;bottom=0;right=0;editable=1;overflow=hidden;whiteSpace=wrap;html=1;" parent="ip5SDqEOvisrCATGqPH5-107" vertex="1">
          <mxGeometry width="30.170445368840205" height="30" as="geometry">
            <mxRectangle width="30.170445368840205" height="30" as="alternateBounds" />
          </mxGeometry>
        </mxCell>
        <mxCell id="ip5SDqEOvisrCATGqPH5-109" value="CreatedAt" style="shape=partialRectangle;connectable=0;fillColor=none;top=0;left=0;bottom=0;right=0;align=left;spacingLeft=6;overflow=hidden;whiteSpace=wrap;html=1;" parent="ip5SDqEOvisrCATGqPH5-107" vertex="1">
          <mxGeometry x="30.170445368840205" width="149.8295546311598" height="30" as="geometry">
            <mxRectangle width="149.8295546311598" height="30" as="alternateBounds" />
          </mxGeometry>
        </mxCell>
        <mxCell id="ip5SDqEOvisrCATGqPH5-110" value="" style="shape=tableRow;horizontal=0;startSize=0;swimlaneHead=0;swimlaneBody=0;fillColor=none;collapsible=0;dropTarget=0;points=[[0,0.5],[1,0.5]];portConstraint=eastwest;top=0;left=0;right=0;bottom=0;" parent="ip5SDqEOvisrCATGqPH5-91" vertex="1">
          <mxGeometry y="270" width="180" height="30" as="geometry" />
        </mxCell>
        <mxCell id="ip5SDqEOvisrCATGqPH5-111" value="" style="shape=partialRectangle;connectable=0;fillColor=none;top=0;left=0;bottom=0;right=0;editable=1;overflow=hidden;whiteSpace=wrap;html=1;" parent="ip5SDqEOvisrCATGqPH5-110" vertex="1">
          <mxGeometry width="30.170445368840205" height="30" as="geometry">
            <mxRectangle width="30.170445368840205" height="30" as="alternateBounds" />
          </mxGeometry>
        </mxCell>
        <mxCell id="ip5SDqEOvisrCATGqPH5-112" value="UpdatedAt" style="shape=partialRectangle;connectable=0;fillColor=none;top=0;left=0;bottom=0;right=0;align=left;spacingLeft=6;overflow=hidden;whiteSpace=wrap;html=1;" parent="ip5SDqEOvisrCATGqPH5-110" vertex="1">
          <mxGeometry x="30.170445368840205" width="149.8295546311598" height="30" as="geometry">
            <mxRectangle width="149.8295546311598" height="30" as="alternateBounds" />
          </mxGeometry>
        </mxCell>
        <mxCell id="wQEWC8To6UkQKnyoasjA-3" value="" style="shape=tableRow;horizontal=0;startSize=0;swimlaneHead=0;swimlaneBody=0;fillColor=none;collapsible=0;dropTarget=0;points=[[0,0.5],[1,0.5]];portConstraint=eastwest;top=0;left=0;right=0;bottom=0;" vertex="1" parent="ip5SDqEOvisrCATGqPH5-91">
          <mxGeometry y="300" width="180" height="30" as="geometry" />
        </mxCell>
        <mxCell id="wQEWC8To6UkQKnyoasjA-4" value="" style="shape=partialRectangle;connectable=0;fillColor=none;top=0;left=0;bottom=0;right=0;editable=1;overflow=hidden;whiteSpace=wrap;html=1;" vertex="1" parent="wQEWC8To6UkQKnyoasjA-3">
          <mxGeometry width="30.170445368840205" height="30" as="geometry">
            <mxRectangle width="30.170445368840205" height="30" as="alternateBounds" />
          </mxGeometry>
        </mxCell>
        <mxCell id="wQEWC8To6UkQKnyoasjA-5" value="UserFullName" style="shape=partialRectangle;connectable=0;fillColor=none;top=0;left=0;bottom=0;right=0;align=left;spacingLeft=6;overflow=hidden;whiteSpace=wrap;html=1;" vertex="1" parent="wQEWC8To6UkQKnyoasjA-3">
          <mxGeometry x="30.170445368840205" width="149.8295546311598" height="30" as="geometry">
            <mxRectangle width="149.8295546311598" height="30" as="alternateBounds" />
          </mxGeometry>
        </mxCell>
        <mxCell id="ip5SDqEOvisrCATGqPH5-146" style="edgeStyle=orthogonalEdgeStyle;rounded=0;orthogonalLoop=1;jettySize=auto;html=1;endArrow=none;endFill=0;" parent="1" source="ip5SDqEOvisrCATGqPH5-2" target="ip5SDqEOvisrCATGqPH5-141" edge="1">
          <mxGeometry relative="1" as="geometry">
            <Array as="points">
              <mxPoint x="496" y="-456" />
              <mxPoint x="496" y="-305" />
            </Array>
          </mxGeometry>
        </mxCell>
        <mxCell id="ip5SDqEOvisrCATGqPH5-147" value="Incidents" style="shape=table;startSize=30;container=1;collapsible=1;childLayout=tableLayout;fixedRows=1;rowLines=0;fontStyle=1;align=center;resizeLast=1;html=1;" parent="1" vertex="1">
          <mxGeometry x="243" y="-138" width="180" height="300" as="geometry" />
        </mxCell>
        <mxCell id="ip5SDqEOvisrCATGqPH5-148" value="" style="shape=tableRow;horizontal=0;startSize=0;swimlaneHead=0;swimlaneBody=0;fillColor=none;collapsible=0;dropTarget=0;points=[[0,0.5],[1,0.5]];portConstraint=eastwest;top=0;left=0;right=0;bottom=1;" parent="ip5SDqEOvisrCATGqPH5-147" vertex="1">
          <mxGeometry y="30" width="180" height="31" as="geometry" />
        </mxCell>
        <mxCell id="ip5SDqEOvisrCATGqPH5-149" value="PK" style="shape=partialRectangle;connectable=0;fillColor=none;top=0;left=0;bottom=0;right=0;fontStyle=1;overflow=hidden;whiteSpace=wrap;html=1;" parent="ip5SDqEOvisrCATGqPH5-148" vertex="1">
          <mxGeometry width="30" height="31" as="geometry">
            <mxRectangle width="30" height="31" as="alternateBounds" />
          </mxGeometry>
        </mxCell>
        <mxCell id="ip5SDqEOvisrCATGqPH5-150" value="IncidentID" style="shape=partialRectangle;connectable=0;fillColor=none;top=0;left=0;bottom=0;right=0;align=left;spacingLeft=6;fontStyle=5;overflow=hidden;whiteSpace=wrap;html=1;" parent="ip5SDqEOvisrCATGqPH5-148" vertex="1">
          <mxGeometry x="30" width="150" height="31" as="geometry">
            <mxRectangle width="150" height="31" as="alternateBounds" />
          </mxGeometry>
        </mxCell>
        <mxCell id="ip5SDqEOvisrCATGqPH5-151" value="" style="shape=tableRow;horizontal=0;startSize=0;swimlaneHead=0;swimlaneBody=0;fillColor=none;collapsible=0;dropTarget=0;points=[[0,0.5],[1,0.5]];portConstraint=eastwest;top=0;left=0;right=0;bottom=1;" parent="ip5SDqEOvisrCATGqPH5-147" vertex="1">
          <mxGeometry y="61" width="180" height="30" as="geometry" />
        </mxCell>
        <mxCell id="ip5SDqEOvisrCATGqPH5-152" value="FK" style="shape=partialRectangle;connectable=0;fillColor=none;top=0;left=0;bottom=0;right=0;fontStyle=1;overflow=hidden;whiteSpace=wrap;html=1;" parent="ip5SDqEOvisrCATGqPH5-151" vertex="1">
          <mxGeometry width="30" height="30" as="geometry">
            <mxRectangle width="30" height="30" as="alternateBounds" />
          </mxGeometry>
        </mxCell>
        <mxCell id="ip5SDqEOvisrCATGqPH5-153" value="UserId" style="shape=partialRectangle;connectable=0;fillColor=none;top=0;left=0;bottom=0;right=0;align=left;spacingLeft=6;fontStyle=5;overflow=hidden;whiteSpace=wrap;html=1;" parent="ip5SDqEOvisrCATGqPH5-151" vertex="1">
          <mxGeometry x="30" width="150" height="30" as="geometry">
            <mxRectangle width="150" height="30" as="alternateBounds" />
          </mxGeometry>
        </mxCell>
        <mxCell id="ip5SDqEOvisrCATGqPH5-157" value="" style="shape=tableRow;horizontal=0;startSize=0;swimlaneHead=0;swimlaneBody=0;fillColor=none;collapsible=0;dropTarget=0;points=[[0,0.5],[1,0.5]];portConstraint=eastwest;top=0;left=0;right=0;bottom=0;" parent="ip5SDqEOvisrCATGqPH5-147" vertex="1">
          <mxGeometry y="91" width="180" height="24" as="geometry" />
        </mxCell>
        <mxCell id="ip5SDqEOvisrCATGqPH5-158" value="" style="shape=partialRectangle;connectable=0;fillColor=none;top=0;left=0;bottom=0;right=0;editable=1;overflow=hidden;whiteSpace=wrap;html=1;" parent="ip5SDqEOvisrCATGqPH5-157" vertex="1">
          <mxGeometry width="30" height="24" as="geometry">
            <mxRectangle width="30" height="24" as="alternateBounds" />
          </mxGeometry>
        </mxCell>
        <mxCell id="ip5SDqEOvisrCATGqPH5-159" value="Title" style="shape=partialRectangle;connectable=0;fillColor=none;top=0;left=0;bottom=0;right=0;align=left;spacingLeft=6;overflow=hidden;whiteSpace=wrap;html=1;" parent="ip5SDqEOvisrCATGqPH5-157" vertex="1">
          <mxGeometry x="30" width="150" height="24" as="geometry">
            <mxRectangle width="150" height="24" as="alternateBounds" />
          </mxGeometry>
        </mxCell>
        <mxCell id="ip5SDqEOvisrCATGqPH5-160" value="" style="shape=tableRow;horizontal=0;startSize=0;swimlaneHead=0;swimlaneBody=0;fillColor=none;collapsible=0;dropTarget=0;points=[[0,0.5],[1,0.5]];portConstraint=eastwest;top=0;left=0;right=0;bottom=0;" parent="ip5SDqEOvisrCATGqPH5-147" vertex="1">
          <mxGeometry y="115" width="180" height="35" as="geometry" />
        </mxCell>
        <mxCell id="ip5SDqEOvisrCATGqPH5-161" value="" style="shape=partialRectangle;connectable=0;fillColor=none;top=0;left=0;bottom=0;right=0;editable=1;overflow=hidden;whiteSpace=wrap;html=1;" parent="ip5SDqEOvisrCATGqPH5-160" vertex="1">
          <mxGeometry width="30" height="35" as="geometry">
            <mxRectangle width="30" height="35" as="alternateBounds" />
          </mxGeometry>
        </mxCell>
        <mxCell id="ip5SDqEOvisrCATGqPH5-162" value="Description" style="shape=partialRectangle;connectable=0;fillColor=none;top=0;left=0;bottom=0;right=0;align=left;spacingLeft=6;overflow=hidden;whiteSpace=wrap;html=1;" parent="ip5SDqEOvisrCATGqPH5-160" vertex="1">
          <mxGeometry x="30" width="150" height="35" as="geometry">
            <mxRectangle width="150" height="35" as="alternateBounds" />
          </mxGeometry>
        </mxCell>
        <mxCell id="ip5SDqEOvisrCATGqPH5-163" value="" style="shape=tableRow;horizontal=0;startSize=0;swimlaneHead=0;swimlaneBody=0;fillColor=none;collapsible=0;dropTarget=0;points=[[0,0.5],[1,0.5]];portConstraint=eastwest;top=0;left=0;right=0;bottom=0;" parent="ip5SDqEOvisrCATGqPH5-147" vertex="1">
          <mxGeometry y="150" width="180" height="30" as="geometry" />
        </mxCell>
        <mxCell id="ip5SDqEOvisrCATGqPH5-164" value="" style="shape=partialRectangle;connectable=0;fillColor=none;top=0;left=0;bottom=0;right=0;editable=1;overflow=hidden;whiteSpace=wrap;html=1;" parent="ip5SDqEOvisrCATGqPH5-163" vertex="1">
          <mxGeometry width="30" height="30" as="geometry">
            <mxRectangle width="30" height="30" as="alternateBounds" />
          </mxGeometry>
        </mxCell>
        <mxCell id="ip5SDqEOvisrCATGqPH5-165" value="Status" style="shape=partialRectangle;connectable=0;fillColor=none;top=0;left=0;bottom=0;right=0;align=left;spacingLeft=6;overflow=hidden;whiteSpace=wrap;html=1;" parent="ip5SDqEOvisrCATGqPH5-163" vertex="1">
          <mxGeometry x="30" width="150" height="30" as="geometry">
            <mxRectangle width="150" height="30" as="alternateBounds" />
          </mxGeometry>
        </mxCell>
        <mxCell id="ip5SDqEOvisrCATGqPH5-166" value="" style="shape=tableRow;horizontal=0;startSize=0;swimlaneHead=0;swimlaneBody=0;fillColor=none;collapsible=0;dropTarget=0;points=[[0,0.5],[1,0.5]];portConstraint=eastwest;top=0;left=0;right=0;bottom=0;" parent="ip5SDqEOvisrCATGqPH5-147" vertex="1">
          <mxGeometry y="180" width="180" height="30" as="geometry" />
        </mxCell>
        <mxCell id="ip5SDqEOvisrCATGqPH5-167" value="" style="shape=partialRectangle;connectable=0;fillColor=none;top=0;left=0;bottom=0;right=0;editable=1;overflow=hidden;whiteSpace=wrap;html=1;" parent="ip5SDqEOvisrCATGqPH5-166" vertex="1">
          <mxGeometry width="30" height="30" as="geometry">
            <mxRectangle width="30" height="30" as="alternateBounds" />
          </mxGeometry>
        </mxCell>
        <mxCell id="ip5SDqEOvisrCATGqPH5-168" value="Priority" style="shape=partialRectangle;connectable=0;fillColor=none;top=0;left=0;bottom=0;right=0;align=left;spacingLeft=6;overflow=hidden;whiteSpace=wrap;html=1;" parent="ip5SDqEOvisrCATGqPH5-166" vertex="1">
          <mxGeometry x="30" width="150" height="30" as="geometry">
            <mxRectangle width="150" height="30" as="alternateBounds" />
          </mxGeometry>
        </mxCell>
        <mxCell id="ip5SDqEOvisrCATGqPH5-169" value="" style="shape=tableRow;horizontal=0;startSize=0;swimlaneHead=0;swimlaneBody=0;fillColor=none;collapsible=0;dropTarget=0;points=[[0,0.5],[1,0.5]];portConstraint=eastwest;top=0;left=0;right=0;bottom=0;" parent="ip5SDqEOvisrCATGqPH5-147" vertex="1">
          <mxGeometry y="210" width="180" height="30" as="geometry" />
        </mxCell>
        <mxCell id="ip5SDqEOvisrCATGqPH5-170" value="" style="shape=partialRectangle;connectable=0;fillColor=none;top=0;left=0;bottom=0;right=0;editable=1;overflow=hidden;whiteSpace=wrap;html=1;" parent="ip5SDqEOvisrCATGqPH5-169" vertex="1">
          <mxGeometry width="30" height="30" as="geometry">
            <mxRectangle width="30" height="30" as="alternateBounds" />
          </mxGeometry>
        </mxCell>
        <mxCell id="ip5SDqEOvisrCATGqPH5-171" value="CreatedAt" style="shape=partialRectangle;connectable=0;fillColor=none;top=0;left=0;bottom=0;right=0;align=left;spacingLeft=6;overflow=hidden;whiteSpace=wrap;html=1;" parent="ip5SDqEOvisrCATGqPH5-169" vertex="1">
          <mxGeometry x="30" width="150" height="30" as="geometry">
            <mxRectangle width="150" height="30" as="alternateBounds" />
          </mxGeometry>
        </mxCell>
        <mxCell id="ip5SDqEOvisrCATGqPH5-172" value="" style="shape=tableRow;horizontal=0;startSize=0;swimlaneHead=0;swimlaneBody=0;fillColor=none;collapsible=0;dropTarget=0;points=[[0,0.5],[1,0.5]];portConstraint=eastwest;top=0;left=0;right=0;bottom=0;" parent="ip5SDqEOvisrCATGqPH5-147" vertex="1">
          <mxGeometry y="240" width="180" height="30" as="geometry" />
        </mxCell>
        <mxCell id="ip5SDqEOvisrCATGqPH5-173" value="" style="shape=partialRectangle;connectable=0;fillColor=none;top=0;left=0;bottom=0;right=0;editable=1;overflow=hidden;whiteSpace=wrap;html=1;" parent="ip5SDqEOvisrCATGqPH5-172" vertex="1">
          <mxGeometry width="30" height="30" as="geometry">
            <mxRectangle width="30" height="30" as="alternateBounds" />
          </mxGeometry>
        </mxCell>
        <mxCell id="ip5SDqEOvisrCATGqPH5-174" value="ClosedAt" style="shape=partialRectangle;connectable=0;fillColor=none;top=0;left=0;bottom=0;right=0;align=left;spacingLeft=6;overflow=hidden;whiteSpace=wrap;html=1;" parent="ip5SDqEOvisrCATGqPH5-172" vertex="1">
          <mxGeometry x="30" width="150" height="30" as="geometry">
            <mxRectangle width="150" height="30" as="alternateBounds" />
          </mxGeometry>
        </mxCell>
        <mxCell id="wQEWC8To6UkQKnyoasjA-12" value="" style="shape=tableRow;horizontal=0;startSize=0;swimlaneHead=0;swimlaneBody=0;fillColor=none;collapsible=0;dropTarget=0;points=[[0,0.5],[1,0.5]];portConstraint=eastwest;top=0;left=0;right=0;bottom=0;" vertex="1" parent="ip5SDqEOvisrCATGqPH5-147">
          <mxGeometry y="270" width="180" height="30" as="geometry" />
        </mxCell>
        <mxCell id="wQEWC8To6UkQKnyoasjA-13" value="" style="shape=partialRectangle;connectable=0;fillColor=none;top=0;left=0;bottom=0;right=0;editable=1;overflow=hidden;whiteSpace=wrap;html=1;" vertex="1" parent="wQEWC8To6UkQKnyoasjA-12">
          <mxGeometry width="30" height="30" as="geometry">
            <mxRectangle width="30" height="30" as="alternateBounds" />
          </mxGeometry>
        </mxCell>
        <mxCell id="wQEWC8To6UkQKnyoasjA-14" value="UserFullName" style="shape=partialRectangle;connectable=0;fillColor=none;top=0;left=0;bottom=0;right=0;align=left;spacingLeft=6;overflow=hidden;whiteSpace=wrap;html=1;" vertex="1" parent="wQEWC8To6UkQKnyoasjA-12">
          <mxGeometry x="30" width="150" height="30" as="geometry">
            <mxRectangle width="150" height="30" as="alternateBounds" />
          </mxGeometry>
        </mxCell>
        <mxCell id="ip5SDqEOvisrCATGqPH5-175" style="edgeStyle=orthogonalEdgeStyle;rounded=0;orthogonalLoop=1;jettySize=auto;html=1;entryX=0;entryY=0.5;entryDx=0;entryDy=0;endArrow=none;endFill=0;" parent="1" source="ip5SDqEOvisrCATGqPH5-2" target="ip5SDqEOvisrCATGqPH5-151" edge="1">
          <mxGeometry relative="1" as="geometry">
            <Array as="points">
              <mxPoint x="180" y="-456" />
              <mxPoint x="180" y="-62" />
            </Array>
          </mxGeometry>
        </mxCell>
        <mxCell id="ip5SDqEOvisrCATGqPH5-176" value="Comments" style="shape=table;startSize=30;container=1;collapsible=1;childLayout=tableLayout;fixedRows=1;rowLines=0;fontStyle=1;align=center;resizeLast=1;html=1;" parent="1" vertex="1">
          <mxGeometry x="867" y="-50" width="180" height="245" as="geometry" />
        </mxCell>
        <mxCell id="ip5SDqEOvisrCATGqPH5-177" value="" style="shape=tableRow;horizontal=0;startSize=0;swimlaneHead=0;swimlaneBody=0;fillColor=none;collapsible=0;dropTarget=0;points=[[0,0.5],[1,0.5]];portConstraint=eastwest;top=0;left=0;right=0;bottom=1;" parent="ip5SDqEOvisrCATGqPH5-176" vertex="1">
          <mxGeometry y="30" width="180" height="31" as="geometry" />
        </mxCell>
        <mxCell id="ip5SDqEOvisrCATGqPH5-178" value="PK" style="shape=partialRectangle;connectable=0;fillColor=none;top=0;left=0;bottom=0;right=0;fontStyle=1;overflow=hidden;whiteSpace=wrap;html=1;" parent="ip5SDqEOvisrCATGqPH5-177" vertex="1">
          <mxGeometry width="29.580734916355482" height="31" as="geometry">
            <mxRectangle width="29.580734916355482" height="31" as="alternateBounds" />
          </mxGeometry>
        </mxCell>
        <mxCell id="ip5SDqEOvisrCATGqPH5-179" value="CommentID" style="shape=partialRectangle;connectable=0;fillColor=none;top=0;left=0;bottom=0;right=0;align=left;spacingLeft=6;fontStyle=5;overflow=hidden;whiteSpace=wrap;html=1;" parent="ip5SDqEOvisrCATGqPH5-177" vertex="1">
          <mxGeometry x="29.580734916355482" width="150.41926508364452" height="31" as="geometry">
            <mxRectangle width="150.41926508364452" height="31" as="alternateBounds" />
          </mxGeometry>
        </mxCell>
        <mxCell id="ip5SDqEOvisrCATGqPH5-180" value="" style="shape=tableRow;horizontal=0;startSize=0;swimlaneHead=0;swimlaneBody=0;fillColor=none;collapsible=0;dropTarget=0;points=[[0,0.5],[1,0.5]];portConstraint=eastwest;top=0;left=0;right=0;bottom=1;" parent="ip5SDqEOvisrCATGqPH5-176" vertex="1">
          <mxGeometry y="61" width="180" height="30" as="geometry" />
        </mxCell>
        <mxCell id="ip5SDqEOvisrCATGqPH5-181" value="FK" style="shape=partialRectangle;connectable=0;fillColor=none;top=0;left=0;bottom=0;right=0;fontStyle=1;overflow=hidden;whiteSpace=wrap;html=1;" parent="ip5SDqEOvisrCATGqPH5-180" vertex="1">
          <mxGeometry width="29.580734916355482" height="30" as="geometry">
            <mxRectangle width="29.580734916355482" height="30" as="alternateBounds" />
          </mxGeometry>
        </mxCell>
        <mxCell id="ip5SDqEOvisrCATGqPH5-182" value="RequestID" style="shape=partialRectangle;connectable=0;fillColor=none;top=0;left=0;bottom=0;right=0;align=left;spacingLeft=6;fontStyle=5;overflow=hidden;whiteSpace=wrap;html=1;" parent="ip5SDqEOvisrCATGqPH5-180" vertex="1">
          <mxGeometry x="29.580734916355482" width="150.41926508364452" height="30" as="geometry">
            <mxRectangle width="150.41926508364452" height="30" as="alternateBounds" />
          </mxGeometry>
        </mxCell>
        <mxCell id="ip5SDqEOvisrCATGqPH5-183" value="" style="shape=tableRow;horizontal=0;startSize=0;swimlaneHead=0;swimlaneBody=0;fillColor=none;collapsible=0;dropTarget=0;points=[[0,0.5],[1,0.5]];portConstraint=eastwest;top=0;left=0;right=0;bottom=1;" parent="ip5SDqEOvisrCATGqPH5-176" vertex="1">
          <mxGeometry y="91" width="180" height="30" as="geometry" />
        </mxCell>
        <mxCell id="ip5SDqEOvisrCATGqPH5-184" value="FK" style="shape=partialRectangle;connectable=0;fillColor=none;top=0;left=0;bottom=0;right=0;fontStyle=1;overflow=hidden;whiteSpace=wrap;html=1;" parent="ip5SDqEOvisrCATGqPH5-183" vertex="1">
          <mxGeometry width="29.580734916355482" height="30" as="geometry">
            <mxRectangle width="29.580734916355482" height="30" as="alternateBounds" />
          </mxGeometry>
        </mxCell>
        <mxCell id="ip5SDqEOvisrCATGqPH5-185" value="IncidentID" style="shape=partialRectangle;connectable=0;fillColor=none;top=0;left=0;bottom=0;right=0;align=left;spacingLeft=6;fontStyle=5;overflow=hidden;whiteSpace=wrap;html=1;" parent="ip5SDqEOvisrCATGqPH5-183" vertex="1">
          <mxGeometry x="29.580734916355482" width="150.41926508364452" height="30" as="geometry">
            <mxRectangle width="150.41926508364452" height="30" as="alternateBounds" />
          </mxGeometry>
        </mxCell>
        <mxCell id="ip5SDqEOvisrCATGqPH5-223" value="" style="shape=tableRow;horizontal=0;startSize=0;swimlaneHead=0;swimlaneBody=0;fillColor=none;collapsible=0;dropTarget=0;points=[[0,0.5],[1,0.5]];portConstraint=eastwest;top=0;left=0;right=0;bottom=1;" parent="ip5SDqEOvisrCATGqPH5-176" vertex="1">
          <mxGeometry y="121" width="180" height="30" as="geometry" />
        </mxCell>
        <mxCell id="ip5SDqEOvisrCATGqPH5-224" value="FK" style="shape=partialRectangle;connectable=0;fillColor=none;top=0;left=0;bottom=0;right=0;fontStyle=1;overflow=hidden;whiteSpace=wrap;html=1;" parent="ip5SDqEOvisrCATGqPH5-223" vertex="1">
          <mxGeometry width="29.580734916355482" height="30" as="geometry">
            <mxRectangle width="29.580734916355482" height="30" as="alternateBounds" />
          </mxGeometry>
        </mxCell>
        <mxCell id="ip5SDqEOvisrCATGqPH5-225" value="UserID" style="shape=partialRectangle;connectable=0;fillColor=none;top=0;left=0;bottom=0;right=0;align=left;spacingLeft=6;fontStyle=5;overflow=hidden;whiteSpace=wrap;html=1;" parent="ip5SDqEOvisrCATGqPH5-223" vertex="1">
          <mxGeometry x="29.580734916355482" width="150.41926508364452" height="30" as="geometry">
            <mxRectangle width="150.41926508364452" height="30" as="alternateBounds" />
          </mxGeometry>
        </mxCell>
        <mxCell id="ip5SDqEOvisrCATGqPH5-186" value="" style="shape=tableRow;horizontal=0;startSize=0;swimlaneHead=0;swimlaneBody=0;fillColor=none;collapsible=0;dropTarget=0;points=[[0,0.5],[1,0.5]];portConstraint=eastwest;top=0;left=0;right=0;bottom=0;" parent="ip5SDqEOvisrCATGqPH5-176" vertex="1">
          <mxGeometry y="151" width="180" height="24" as="geometry" />
        </mxCell>
        <mxCell id="ip5SDqEOvisrCATGqPH5-187" value="" style="shape=partialRectangle;connectable=0;fillColor=none;top=0;left=0;bottom=0;right=0;editable=1;overflow=hidden;whiteSpace=wrap;html=1;" parent="ip5SDqEOvisrCATGqPH5-186" vertex="1">
          <mxGeometry width="29.580734916355482" height="24" as="geometry">
            <mxRectangle width="29.580734916355482" height="24" as="alternateBounds" />
          </mxGeometry>
        </mxCell>
        <mxCell id="ip5SDqEOvisrCATGqPH5-188" value="Text" style="shape=partialRectangle;connectable=0;fillColor=none;top=0;left=0;bottom=0;right=0;align=left;spacingLeft=6;overflow=hidden;whiteSpace=wrap;html=1;" parent="ip5SDqEOvisrCATGqPH5-186" vertex="1">
          <mxGeometry x="29.580734916355482" width="150.41926508364452" height="24" as="geometry">
            <mxRectangle width="150.41926508364452" height="24" as="alternateBounds" />
          </mxGeometry>
        </mxCell>
        <mxCell id="ip5SDqEOvisrCATGqPH5-189" value="" style="shape=tableRow;horizontal=0;startSize=0;swimlaneHead=0;swimlaneBody=0;fillColor=none;collapsible=0;dropTarget=0;points=[[0,0.5],[1,0.5]];portConstraint=eastwest;top=0;left=0;right=0;bottom=0;" parent="ip5SDqEOvisrCATGqPH5-176" vertex="1">
          <mxGeometry y="175" width="180" height="35" as="geometry" />
        </mxCell>
        <mxCell id="ip5SDqEOvisrCATGqPH5-190" value="" style="shape=partialRectangle;connectable=0;fillColor=none;top=0;left=0;bottom=0;right=0;editable=1;overflow=hidden;whiteSpace=wrap;html=1;" parent="ip5SDqEOvisrCATGqPH5-189" vertex="1">
          <mxGeometry width="29.580734916355482" height="35" as="geometry">
            <mxRectangle width="29.580734916355482" height="35" as="alternateBounds" />
          </mxGeometry>
        </mxCell>
        <mxCell id="ip5SDqEOvisrCATGqPH5-191" value="CreatedAt" style="shape=partialRectangle;connectable=0;fillColor=none;top=0;left=0;bottom=0;right=0;align=left;spacingLeft=6;overflow=hidden;whiteSpace=wrap;html=1;" parent="ip5SDqEOvisrCATGqPH5-189" vertex="1">
          <mxGeometry x="29.580734916355482" width="150.41926508364452" height="35" as="geometry">
            <mxRectangle width="150.41926508364452" height="35" as="alternateBounds" />
          </mxGeometry>
        </mxCell>
        <mxCell id="wQEWC8To6UkQKnyoasjA-9" value="" style="shape=tableRow;horizontal=0;startSize=0;swimlaneHead=0;swimlaneBody=0;fillColor=none;collapsible=0;dropTarget=0;points=[[0,0.5],[1,0.5]];portConstraint=eastwest;top=0;left=0;right=0;bottom=0;" vertex="1" parent="ip5SDqEOvisrCATGqPH5-176">
          <mxGeometry y="210" width="180" height="35" as="geometry" />
        </mxCell>
        <mxCell id="wQEWC8To6UkQKnyoasjA-10" value="" style="shape=partialRectangle;connectable=0;fillColor=none;top=0;left=0;bottom=0;right=0;editable=1;overflow=hidden;whiteSpace=wrap;html=1;" vertex="1" parent="wQEWC8To6UkQKnyoasjA-9">
          <mxGeometry width="29.580734916355482" height="35" as="geometry">
            <mxRectangle width="29.580734916355482" height="35" as="alternateBounds" />
          </mxGeometry>
        </mxCell>
        <mxCell id="wQEWC8To6UkQKnyoasjA-11" value="UserFullName" style="shape=partialRectangle;connectable=0;fillColor=none;top=0;left=0;bottom=0;right=0;align=left;spacingLeft=6;overflow=hidden;whiteSpace=wrap;html=1;" vertex="1" parent="wQEWC8To6UkQKnyoasjA-9">
          <mxGeometry x="29.580734916355482" width="150.41926508364452" height="35" as="geometry">
            <mxRectangle width="150.41926508364452" height="35" as="alternateBounds" />
          </mxGeometry>
        </mxCell>
        <mxCell id="ip5SDqEOvisrCATGqPH5-226" style="edgeStyle=orthogonalEdgeStyle;rounded=0;orthogonalLoop=1;jettySize=auto;html=1;entryX=0;entryY=0.5;entryDx=0;entryDy=0;endArrow=none;endFill=0;" parent="1" source="ip5SDqEOvisrCATGqPH5-2" target="ip5SDqEOvisrCATGqPH5-223" edge="1">
          <mxGeometry relative="1" as="geometry">
            <Array as="points">
              <mxPoint x="479" y="-448" />
              <mxPoint x="479" y="-46" />
              <mxPoint x="766" y="-46" />
              <mxPoint x="766" y="86" />
            </Array>
          </mxGeometry>
        </mxCell>
        <mxCell id="ip5SDqEOvisrCATGqPH5-227" style="edgeStyle=orthogonalEdgeStyle;rounded=0;orthogonalLoop=1;jettySize=auto;html=1;exitX=0;exitY=0.5;exitDx=0;exitDy=0;entryX=1;entryY=0.5;entryDx=0;entryDy=0;endArrow=none;endFill=0;" parent="1" source="ip5SDqEOvisrCATGqPH5-92" target="ip5SDqEOvisrCATGqPH5-180" edge="1">
          <mxGeometry relative="1" as="geometry">
            <mxPoint x="1049" y="26" as="targetPoint" />
            <Array as="points">
              <mxPoint x="524" y="-366" />
              <mxPoint x="524" y="-768" />
              <mxPoint x="1094" y="-768" />
              <mxPoint x="1094" y="26" />
            </Array>
          </mxGeometry>
        </mxCell>
        <mxCell id="ip5SDqEOvisrCATGqPH5-229" style="edgeStyle=orthogonalEdgeStyle;rounded=0;orthogonalLoop=1;jettySize=auto;html=1;entryX=1;entryY=0.5;entryDx=0;entryDy=0;endArrow=none;endFill=0;" parent="1" source="ip5SDqEOvisrCATGqPH5-148" target="ip5SDqEOvisrCATGqPH5-176" edge="1">
          <mxGeometry relative="1" as="geometry">
            <Array as="points">
              <mxPoint x="462" y="-92" />
              <mxPoint x="462" y="212" />
              <mxPoint x="1097" y="212" />
              <mxPoint x="1097" y="55" />
              <mxPoint x="1047" y="55" />
            </Array>
          </mxGeometry>
        </mxCell>
        <mxCell id="ip5SDqEOvisrCATGqPH5-231" value="Reports" style="shape=table;startSize=30;container=1;collapsible=1;childLayout=tableLayout;fixedRows=1;rowLines=0;fontStyle=1;align=center;resizeLast=1;html=1;" parent="1" vertex="1">
          <mxGeometry x="-52" y="-57" width="180" height="210" as="geometry" />
        </mxCell>
        <mxCell id="ip5SDqEOvisrCATGqPH5-232" value="" style="shape=tableRow;horizontal=0;startSize=0;swimlaneHead=0;swimlaneBody=0;fillColor=none;collapsible=0;dropTarget=0;points=[[0,0.5],[1,0.5]];portConstraint=eastwest;top=0;left=0;right=0;bottom=1;" parent="ip5SDqEOvisrCATGqPH5-231" vertex="1">
          <mxGeometry y="30" width="180" height="31" as="geometry" />
        </mxCell>
        <mxCell id="ip5SDqEOvisrCATGqPH5-233" value="PK" style="shape=partialRectangle;connectable=0;fillColor=none;top=0;left=0;bottom=0;right=0;fontStyle=1;overflow=hidden;whiteSpace=wrap;html=1;" parent="ip5SDqEOvisrCATGqPH5-232" vertex="1">
          <mxGeometry width="28.305564032660666" height="31" as="geometry">
            <mxRectangle width="28.305564032660666" height="31" as="alternateBounds" />
          </mxGeometry>
        </mxCell>
        <mxCell id="ip5SDqEOvisrCATGqPH5-234" value="ReportID" style="shape=partialRectangle;connectable=0;fillColor=none;top=0;left=0;bottom=0;right=0;align=left;spacingLeft=6;fontStyle=5;overflow=hidden;whiteSpace=wrap;html=1;" parent="ip5SDqEOvisrCATGqPH5-232" vertex="1">
          <mxGeometry x="28.305564032660666" width="151.69443596733933" height="31" as="geometry">
            <mxRectangle width="151.69443596733933" height="31" as="alternateBounds" />
          </mxGeometry>
        </mxCell>
        <mxCell id="ip5SDqEOvisrCATGqPH5-235" value="" style="shape=tableRow;horizontal=0;startSize=0;swimlaneHead=0;swimlaneBody=0;fillColor=none;collapsible=0;dropTarget=0;points=[[0,0.5],[1,0.5]];portConstraint=eastwest;top=0;left=0;right=0;bottom=1;" parent="ip5SDqEOvisrCATGqPH5-231" vertex="1">
          <mxGeometry y="61" width="180" height="30" as="geometry" />
        </mxCell>
        <mxCell id="ip5SDqEOvisrCATGqPH5-236" value="FK" style="shape=partialRectangle;connectable=0;fillColor=none;top=0;left=0;bottom=0;right=0;fontStyle=1;overflow=hidden;whiteSpace=wrap;html=1;" parent="ip5SDqEOvisrCATGqPH5-235" vertex="1">
          <mxGeometry width="28.305564032660666" height="30" as="geometry">
            <mxRectangle width="28.305564032660666" height="30" as="alternateBounds" />
          </mxGeometry>
        </mxCell>
        <mxCell id="ip5SDqEOvisrCATGqPH5-237" value="UserID" style="shape=partialRectangle;connectable=0;fillColor=none;top=0;left=0;bottom=0;right=0;align=left;spacingLeft=6;fontStyle=5;overflow=hidden;whiteSpace=wrap;html=1;" parent="ip5SDqEOvisrCATGqPH5-235" vertex="1">
          <mxGeometry x="28.305564032660666" width="151.69443596733933" height="30" as="geometry">
            <mxRectangle width="151.69443596733933" height="30" as="alternateBounds" />
          </mxGeometry>
        </mxCell>
        <mxCell id="ip5SDqEOvisrCATGqPH5-238" value="" style="shape=tableRow;horizontal=0;startSize=0;swimlaneHead=0;swimlaneBody=0;fillColor=none;collapsible=0;dropTarget=0;points=[[0,0.5],[1,0.5]];portConstraint=eastwest;top=0;left=0;right=0;bottom=0;" parent="ip5SDqEOvisrCATGqPH5-231" vertex="1">
          <mxGeometry y="91" width="180" height="24" as="geometry" />
        </mxCell>
        <mxCell id="ip5SDqEOvisrCATGqPH5-239" value="" style="shape=partialRectangle;connectable=0;fillColor=none;top=0;left=0;bottom=0;right=0;editable=1;overflow=hidden;whiteSpace=wrap;html=1;" parent="ip5SDqEOvisrCATGqPH5-238" vertex="1">
          <mxGeometry width="28.305564032660666" height="24" as="geometry">
            <mxRectangle width="28.305564032660666" height="24" as="alternateBounds" />
          </mxGeometry>
        </mxCell>
        <mxCell id="ip5SDqEOvisrCATGqPH5-240" value="ReportType" style="shape=partialRectangle;connectable=0;fillColor=none;top=0;left=0;bottom=0;right=0;align=left;spacingLeft=6;overflow=hidden;whiteSpace=wrap;html=1;" parent="ip5SDqEOvisrCATGqPH5-238" vertex="1">
          <mxGeometry x="28.305564032660666" width="151.69443596733933" height="24" as="geometry">
            <mxRectangle width="151.69443596733933" height="24" as="alternateBounds" />
          </mxGeometry>
        </mxCell>
        <mxCell id="ip5SDqEOvisrCATGqPH5-241" value="" style="shape=tableRow;horizontal=0;startSize=0;swimlaneHead=0;swimlaneBody=0;fillColor=none;collapsible=0;dropTarget=0;points=[[0,0.5],[1,0.5]];portConstraint=eastwest;top=0;left=0;right=0;bottom=0;" parent="ip5SDqEOvisrCATGqPH5-231" vertex="1">
          <mxGeometry y="115" width="180" height="35" as="geometry" />
        </mxCell>
        <mxCell id="ip5SDqEOvisrCATGqPH5-242" value="" style="shape=partialRectangle;connectable=0;fillColor=none;top=0;left=0;bottom=0;right=0;editable=1;overflow=hidden;whiteSpace=wrap;html=1;" parent="ip5SDqEOvisrCATGqPH5-241" vertex="1">
          <mxGeometry width="28.305564032660666" height="35" as="geometry">
            <mxRectangle width="28.305564032660666" height="35" as="alternateBounds" />
          </mxGeometry>
        </mxCell>
        <mxCell id="ip5SDqEOvisrCATGqPH5-243" value="CreatedAt" style="shape=partialRectangle;connectable=0;fillColor=none;top=0;left=0;bottom=0;right=0;align=left;spacingLeft=6;overflow=hidden;whiteSpace=wrap;html=1;" parent="ip5SDqEOvisrCATGqPH5-241" vertex="1">
          <mxGeometry x="28.305564032660666" width="151.69443596733933" height="35" as="geometry">
            <mxRectangle width="151.69443596733933" height="35" as="alternateBounds" />
          </mxGeometry>
        </mxCell>
        <mxCell id="ip5SDqEOvisrCATGqPH5-244" value="" style="shape=tableRow;horizontal=0;startSize=0;swimlaneHead=0;swimlaneBody=0;fillColor=none;collapsible=0;dropTarget=0;points=[[0,0.5],[1,0.5]];portConstraint=eastwest;top=0;left=0;right=0;bottom=0;" parent="ip5SDqEOvisrCATGqPH5-231" vertex="1">
          <mxGeometry y="150" width="180" height="30" as="geometry" />
        </mxCell>
        <mxCell id="ip5SDqEOvisrCATGqPH5-245" value="" style="shape=partialRectangle;connectable=0;fillColor=none;top=0;left=0;bottom=0;right=0;editable=1;overflow=hidden;whiteSpace=wrap;html=1;" parent="ip5SDqEOvisrCATGqPH5-244" vertex="1">
          <mxGeometry width="28.305564032660666" height="30" as="geometry">
            <mxRectangle width="28.305564032660666" height="30" as="alternateBounds" />
          </mxGeometry>
        </mxCell>
        <mxCell id="ip5SDqEOvisrCATGqPH5-246" value="ReportData" style="shape=partialRectangle;connectable=0;fillColor=none;top=0;left=0;bottom=0;right=0;align=left;spacingLeft=6;overflow=hidden;whiteSpace=wrap;html=1;" parent="ip5SDqEOvisrCATGqPH5-244" vertex="1">
          <mxGeometry x="28.305564032660666" width="151.69443596733933" height="30" as="geometry">
            <mxRectangle width="151.69443596733933" height="30" as="alternateBounds" />
          </mxGeometry>
        </mxCell>
        <mxCell id="wQEWC8To6UkQKnyoasjA-6" value="" style="shape=tableRow;horizontal=0;startSize=0;swimlaneHead=0;swimlaneBody=0;fillColor=none;collapsible=0;dropTarget=0;points=[[0,0.5],[1,0.5]];portConstraint=eastwest;top=0;left=0;right=0;bottom=0;" vertex="1" parent="ip5SDqEOvisrCATGqPH5-231">
          <mxGeometry y="180" width="180" height="30" as="geometry" />
        </mxCell>
        <mxCell id="wQEWC8To6UkQKnyoasjA-7" value="" style="shape=partialRectangle;connectable=0;fillColor=none;top=0;left=0;bottom=0;right=0;editable=1;overflow=hidden;whiteSpace=wrap;html=1;" vertex="1" parent="wQEWC8To6UkQKnyoasjA-6">
          <mxGeometry width="28.305564032660666" height="30" as="geometry">
            <mxRectangle width="28.305564032660666" height="30" as="alternateBounds" />
          </mxGeometry>
        </mxCell>
        <mxCell id="wQEWC8To6UkQKnyoasjA-8" value="UserFullName" style="shape=partialRectangle;connectable=0;fillColor=none;top=0;left=0;bottom=0;right=0;align=left;spacingLeft=6;overflow=hidden;whiteSpace=wrap;html=1;" vertex="1" parent="wQEWC8To6UkQKnyoasjA-6">
          <mxGeometry x="28.305564032660666" width="151.69443596733933" height="30" as="geometry">
            <mxRectangle width="151.69443596733933" height="30" as="alternateBounds" />
          </mxGeometry>
        </mxCell>
        <mxCell id="ip5SDqEOvisrCATGqPH5-256" style="edgeStyle=orthogonalEdgeStyle;rounded=0;orthogonalLoop=1;jettySize=auto;html=1;entryX=0;entryY=0.5;entryDx=0;entryDy=0;endArrow=none;endFill=0;" parent="1" source="ip5SDqEOvisrCATGqPH5-2" target="ip5SDqEOvisrCATGqPH5-235" edge="1">
          <mxGeometry relative="1" as="geometry">
            <Array as="points">
              <mxPoint x="-72" y="-470" />
              <mxPoint x="-72" y="19" />
            </Array>
          </mxGeometry>
        </mxCell>
        <mxCell id="j8qc_rxbpH505nmaw8Ms-3" value="" style="endArrow=diamondThin;endFill=0;endSize=24;html=1;rounded=0;entryX=0.005;entryY=0.599;entryDx=0;entryDy=0;entryPerimeter=0;exitX=0;exitY=0.304;exitDx=0;exitDy=0;exitPerimeter=0;" parent="1" source="BT73VBc6w89gyIfs_S2I-3" target="BT73VBc6w89gyIfs_S2I-48" edge="1">
          <mxGeometry width="160" relative="1" as="geometry">
            <mxPoint x="1005" y="1303" as="sourcePoint" />
            <mxPoint x="1122" y="1511" as="targetPoint" />
            <Array as="points">
              <mxPoint x="1001" y="810" />
              <mxPoint x="1002" y="1511" />
            </Array>
          </mxGeometry>
        </mxCell>
        <mxCell id="wQEWC8To6UkQKnyoasjA-1" style="edgeStyle=orthogonalEdgeStyle;rounded=0;orthogonalLoop=1;jettySize=auto;html=1;entryX=1;entryY=0.5;entryDx=0;entryDy=0;endArrow=none;endFill=0;" edge="1" parent="1" source="ip5SDqEOvisrCATGqPH5-70" target="ip5SDqEOvisrCATGqPH5-113">
          <mxGeometry relative="1" as="geometry" />
        </mxCell>
      </root>
    </mxGraphModel>
  </diagram>
</mxfile>
